# MagicaVoxel @ Ephtracy

# group
g repair_core

# material
mtllib repair_core.mtl
usemtl palette

# normals
vn -1 0 0
vn 1 0 0
vn 0 0 1
vn 0 0 -1
vn 0 -1 0
vn 0 1 0

# texcoords
vt 0.591797 0.5
vt 0.978516 0.5
vt 0.986328 0.5

# verts
v -40 0 40
v -40 0 -40
v -40 2 40
v -40 2 6
v -40 2 -6
v -40 2 -40
v -40 6 6
v -40 6 -6
v -40 22 6
v -40 22 -6
v -38 2 38
v -38 2 6
v -38 2 -6
v -38 2 -38
v -38 4 38
v -38 4 6
v -38 4 -6
v -38 4 -38
v -36 4 36
v -36 4 6
v -36 4 -6
v -36 4 -36
v -36 6 36
v -36 6 6
v -36 6 -6
v -36 6 -36
v -34 6 36
v -34 6 32
v -34 6 10
v -34 6 6
v -34 6 -6
v -34 6 -10
v -34 6 -32
v -34 6 -36
v -34 8 36
v -34 8 32
v -34 8 10
v -34 8 6
v -34 8 -6
v -34 8 -10
v -34 8 -32
v -34 8 -36
v -34 40 32
v -34 40 10
v -34 40 -10
v -34 40 -32
v -24 38 8
v -24 38 -8
v -24 62 8
v -24 62 -8
v -8 8 8
v -8 8 6
v -8 8 -6
v -8 8 -8
v -8 22 6
v -8 22 2
v -8 22 -2
v -8 22 -6
v -8 42 8
v -8 42 2
v -8 42 -2
v -8 42 -8
v -8 58 8
v -8 58 2
v -8 58 -2
v -8 58 -8
v -8 66 8
v -8 66 2
v -8 66 -2
v -8 66 -8
v -6 2 40
v -6 2 38
v -6 2 -38
v -6 2 -40
v -6 4 38
v -6 4 36
v -6 4 -36
v -6 4 -38
v -6 8 40
v -6 8 36
v -6 8 -8
v -6 8 -36
v -6 22 -8
v -6 22 -40
v 2 22 8
v 2 22 2
v 2 22 -2
v 2 22 -8
v 2 48 8
v 2 48 2
v 2 48 -2
v 2 48 -8
v 2 52 8
v 2 52 2
v 2 52 -2
v 2 52 -8
v 2 66 8
v 2 66 2
v 2 66 -2
v 2 66 -8
v 12 8 32
v 12 8 10
v 12 8 -10
v 12 8 -32
v 12 40 32
v 12 40 10
v 12 40 -10
v 12 40 -32
v 18 38 8
v 18 38 -8
v 18 42 8
v 18 42 2
v 18 42 -2
v 18 42 -8
v 18 48 8
v 18 48 2
v 18 48 -2
v 18 48 -8
v 18 52 8
v 18 52 2
v 18 52 -2
v 18 52 -8
v 18 58 8
v 18 58 2
v 18 58 -2
v 18 58 -8
v 18 62 8
v 18 62 -8
v -18 38 8
v -18 38 -8
v -18 42 8
v -18 42 2
v -18 42 -2
v -18 42 -8
v -18 48 8
v -18 48 2
v -18 48 -2
v -18 48 -8
v -18 52 8
v -18 52 2
v -18 52 -2
v -18 52 -8
v -18 58 8
v -18 58 2
v -18 58 -2
v -18 58 -8
v -18 62 8
v -18 62 -8
v -12 8 32
v -12 8 10
v -12 8 -10
v -12 8 -32
v -12 40 32
v -12 40 10
v -12 40 -10
v -12 40 -32
v -2 22 8
v -2 22 2
v -2 22 -2
v -2 22 -8
v -2 48 8
v -2 48 2
v -2 48 -2
v -2 48 -8
v -2 52 8
v -2 52 2
v -2 52 -2
v -2 52 -8
v -2 66 8
v -2 66 2
v -2 66 -2
v -2 66 -8
v 6 2 40
v 6 2 38
v 6 2 -38
v 6 2 -40
v 6 4 38
v 6 4 36
v 6 4 -36
v 6 4 -38
v 6 8 40
v 6 8 36
v 6 8 -8
v 6 8 -36
v 6 22 -8
v 6 22 -40
v 8 8 8
v 8 8 6
v 8 8 -6
v 8 8 -8
v 8 22 6
v 8 22 2
v 8 22 -2
v 8 22 -6
v 8 42 8
v 8 42 2
v 8 42 -2
v 8 42 -8
v 8 58 8
v 8 58 2
v 8 58 -2
v 8 58 -8
v 8 66 8
v 8 66 2
v 8 66 -2
v 8 66 -8
v 24 38 8
v 24 38 -8
v 24 62 8
v 24 62 -8
v 34 6 36
v 34 6 32
v 34 6 10
v 34 6 6
v 34 6 -6
v 34 6 -10
v 34 6 -32
v 34 6 -36
v 34 8 36
v 34 8 32
v 34 8 10
v 34 8 6
v 34 8 -6
v 34 8 -10
v 34 8 -32
v 34 8 -36
v 34 40 32
v 34 40 10
v 34 40 -10
v 34 40 -32
v 36 4 36
v 36 4 6
v 36 4 -6
v 36 4 -36
v 36 6 36
v 36 6 6
v 36 6 -6
v 36 6 -36
v 38 2 38
v 38 2 6
v 38 2 -6
v 38 2 -38
v 38 4 38
v 38 4 6
v 38 4 -6
v 38 4 -38
v 40 0 40
v 40 0 -40
v 40 2 40
v 40 2 6
v 40 2 -6
v 40 2 -40
v 40 6 6
v 40 6 -6
v 40 22 6
v 40 22 -6
v -40 0 40
v -40 2 40
v -34 0 40
v -34 2 40
v -6 0 40
v -6 2 40
v -6 8 40
v -4 0 40
v -4 8 40
v 4 0 40
v 4 8 40
v 6 0 40
v 6 2 40
v 6 8 40
v 34 0 40
v 34 2 40
v 40 0 40
v 40 2 40
v -38 2 38
v -38 4 38
v -34 2 38
v -34 4 38
v -6 2 38
v -6 4 38
v 6 2 38
v 6 4 38
v 34 2 38
v 34 4 38
v 38 2 38
v 38 4 38
v -36 4 36
v -36 6 36
v -34 4 36
v -34 6 36
v -34 8 36
v -6 4 36
v -6 8 36
v 6 4 36
v 6 8 36
v 34 4 36
v 34 6 36
v 34 8 36
v 36 4 36
v 36 6 36
v -34 8 32
v -34 40 32
v -12 8 32
v -12 40 32
v 12 8 32
v 12 40 32
v 34 8 32
v 34 40 32
v -24 38 8
v -24 62 8
v -18 38 8
v -18 42 8
v -18 48 8
v -18 52 8
v -18 58 8
v -18 62 8
v -8 8 8
v -8 42 8
v -8 58 8
v -8 66 8
v -6 8 8
v -4 8 8
v -2 8 8
v -2 22 8
v -2 48 8
v -2 52 8
v -2 66 8
v 2 8 8
v 2 22 8
v 2 48 8
v 2 52 8
v 2 66 8
v 4 8 8
v 6 8 8
v 8 8 8
v 8 42 8
v 8 58 8
v 8 66 8
v 18 38 8
v 18 42 8
v 18 48 8
v 18 52 8
v 18 58 8
v 18 62 8
v 24 38 8
v 24 62 8
v -40 2 6
v -40 6 6
v -40 22 6
v -38 2 6
v -38 4 6
v -36 4 6
v -36 6 6
v -34 6 6
v -34 8 6
v -8 8 6
v -8 22 6
v 8 8 6
v 8 22 6
v 34 6 6
v 34 8 6
v 36 4 6
v 36 6 6
v 38 2 6
v 38 4 6
v 40 2 6
v 40 6 6
v 40 22 6
v -18 42 -2
v -18 48 -2
v -18 52 -2
v -18 58 -2
v -8 22 -2
v -8 42 -2
v -8 58 -2
v -8 66 -2
v -2 22 -2
v -2 48 -2
v -2 52 -2
v -2 66 -2
v 2 22 -2
v 2 48 -2
v 2 52 -2
v 2 66 -2
v 8 22 -2
v 8 42 -2
v 8 58 -2
v 8 66 -2
v 18 42 -2
v 18 48 -2
v 18 52 -2
v 18 58 -2
v -34 8 -10
v -34 40 -10
v -12 8 -10
v -12 40 -10
v 12 8 -10
v 12 40 -10
v 34 8 -10
v 34 40 -10
v -34 8 10
v -34 40 10
v -12 8 10
v -12 40 10
v 12 8 10
v 12 40 10
v 34 8 10
v 34 40 10
v -18 42 2
v -18 48 2
v -18 52 2
v -18 58 2
v -8 22 2
v -8 42 2
v -8 58 2
v -8 66 2
v -2 22 2
v -2 48 2
v -2 52 2
v -2 66 2
v 2 22 2
v 2 48 2
v 2 52 2
v 2 66 2
v 8 22 2
v 8 42 2
v 8 58 2
v 8 66 2
v 18 42 2
v 18 48 2
v 18 52 2
v 18 58 2
v -40 2 -6
v -40 6 -6
v -40 22 -6
v -38 2 -6
v -38 4 -6
v -36 4 -6
v -36 6 -6
v -34 6 -6
v -34 8 -6
v -8 8 -6
v -8 22 -6
v 8 8 -6
v 8 22 -6
v 34 6 -6
v 34 8 -6
v 36 4 -6
v 36 6 -6
v 38 2 -6
v 38 4 -6
v 40 2 -6
v 40 6 -6
v 40 22 -6
v -24 38 -8
v -24 62 -8
v -18 38 -8
v -18 42 -8
v -18 48 -8
v -18 52 -8
v -18 58 -8
v -18 62 -8
v -8 8 -8
v -8 42 -8
v -8 58 -8
v -8 66 -8
v -6 8 -8
v -6 22 -8
v -2 22 -8
v -2 48 -8
v -2 52 -8
v -2 66 -8
v 2 22 -8
v 2 48 -8
v 2 52 -8
v 2 66 -8
v 6 8 -8
v 6 22 -8
v 8 8 -8
v 8 42 -8
v 8 58 -8
v 8 66 -8
v 18 38 -8
v 18 42 -8
v 18 48 -8
v 18 52 -8
v 18 58 -8
v 18 62 -8
v 24 38 -8
v 24 62 -8
v -34 8 -32
v -34 40 -32
v -12 8 -32
v -12 40 -32
v 12 8 -32
v 12 40 -32
v 34 8 -32
v 34 40 -32
v -36 4 -36
v -36 6 -36
v -34 4 -36
v -34 6 -36
v -34 8 -36
v -6 4 -36
v -6 8 -36
v 6 4 -36
v 6 8 -36
v 34 4 -36
v 34 6 -36
v 34 8 -36
v 36 4 -36
v 36 6 -36
v -38 2 -38
v -38 4 -38
v -34 2 -38
v -34 4 -38
v -6 2 -38
v -6 4 -38
v 6 2 -38
v 6 4 -38
v 34 2 -38
v 34 4 -38
v 38 2 -38
v 38 4 -38
v -40 0 -40
v -40 2 -40
v -34 0 -40
v -34 2 -40
v -6 2 -40
v -6 22 -40
v 6 2 -40
v 6 22 -40
v 34 0 -40
v 34 2 -40
v 40 0 -40
v 40 2 -40
v -40 0 40
v -34 0 40
v -6 0 40
v -4 0 40
v 4 0 40
v 6 0 40
v 34 0 40
v 40 0 40
v -6 0 8
v -4 0 8
v 4 0 8
v 6 0 8
v -40 0 -40
v -34 0 -40
v 34 0 -40
v 40 0 -40
v -24 38 8
v -18 38 8
v 18 38 8
v 24 38 8
v -24 38 -8
v -18 38 -8
v 18 38 -8
v 24 38 -8
v -18 42 8
v -8 42 8
v 8 42 8
v 18 42 8
v -18 42 2
v -8 42 2
v 8 42 2
v 18 42 2
v -18 42 -2
v -8 42 -2
v 8 42 -2
v 18 42 -2
v -18 42 -8
v -8 42 -8
v 8 42 -8
v 18 42 -8
v -18 52 8
v -2 52 8
v 2 52 8
v 18 52 8
v -18 52 2
v -2 52 2
v 2 52 2
v 18 52 2
v -18 52 -2
v -2 52 -2
v 2 52 -2
v 18 52 -2
v -18 52 -8
v -2 52 -8
v 2 52 -8
v 18 52 -8
v -40 2 40
v -34 2 40
v -6 2 40
v 6 2 40
v 34 2 40
v 40 2 40
v -38 2 38
v -34 2 38
v -6 2 38
v 6 2 38
v 34 2 38
v 38 2 38
v -40 2 6
v -38 2 6
v 38 2 6
v 40 2 6
v -40 2 -6
v -38 2 -6
v 38 2 -6
v 40 2 -6
v -38 2 -38
v -34 2 -38
v -6 2 -38
v 6 2 -38
v 34 2 -38
v 38 2 -38
v -40 2 -40
v -34 2 -40
v -6 2 -40
v 6 2 -40
v 34 2 -40
v 40 2 -40
v -38 4 38
v -34 4 38
v -6 4 38
v 6 4 38
v 34 4 38
v 38 4 38
v -36 4 36
v -34 4 36
v -6 4 36
v 6 4 36
v 34 4 36
v 36 4 36
v -38 4 6
v -36 4 6
v 36 4 6
v 38 4 6
v -38 4 -6
v -36 4 -6
v 36 4 -6
v 38 4 -6
v -36 4 -36
v -34 4 -36
v -6 4 -36
v 6 4 -36
v 34 4 -36
v 36 4 -36
v -38 4 -38
v -34 4 -38
v -6 4 -38
v 6 4 -38
v 34 4 -38
v 38 4 -38
v -36 6 36
v -34 6 36
v 34 6 36
v 36 6 36
v -34 6 32
v 34 6 32
v -34 6 10
v 34 6 10
v -36 6 6
v -34 6 6
v 34 6 6
v 36 6 6
v -36 6 -6
v -34 6 -6
v 34 6 -6
v 36 6 -6
v -34 6 -10
v 34 6 -10
v -34 6 -32
v 34 6 -32
v -36 6 -36
v -34 6 -36
v 34 6 -36
v 36 6 -36
v -6 8 40
v -4 8 40
v 4 8 40
v 6 8 40
v -34 8 36
v -6 8 36
v 6 8 36
v 34 8 36
v -34 8 32
v -12 8 32
v 12 8 32
v 34 8 32
v -34 8 10
v -12 8 10
v 12 8 10
v 34 8 10
v -8 8 8
v -6 8 8
v -4 8 8
v -2 8 8
v 2 8 8
v 4 8 8
v 6 8 8
v 8 8 8
v -34 8 6
v -8 8 6
v 8 8 6
v 34 8 6
v -34 8 -6
v -8 8 -6
v 8 8 -6
v 34 8 -6
v -8 8 -8
v -6 8 -8
v 6 8 -8
v 8 8 -8
v -34 8 -10
v -12 8 -10
v 12 8 -10
v 34 8 -10
v -34 8 -32
v -12 8 -32
v 12 8 -32
v 34 8 -32
v -34 8 -36
v -6 8 -36
v 6 8 -36
v 34 8 -36
v -2 22 8
v 2 22 8
v -40 22 6
v -8 22 6
v 8 22 6
v 40 22 6
v -8 22 2
v -2 22 2
v 2 22 2
v 8 22 2
v -8 22 -2
v -2 22 -2
v 2 22 -2
v 8 22 -2
v -40 22 -6
v -8 22 -6
v 8 22 -6
v 40 22 -6
v -6 22 -8
v -2 22 -8
v 2 22 -8
v 6 22 -8
v -6 22 -40
v 6 22 -40
v -34 40 32
v -12 40 32
v 12 40 32
v 34 40 32
v -34 40 10
v -12 40 10
v 12 40 10
v 34 40 10
v -34 40 -10
v -12 40 -10
v 12 40 -10
v 34 40 -10
v -34 40 -32
v -12 40 -32
v 12 40 -32
v 34 40 -32
v -18 48 8
v -2 48 8
v 2 48 8
v 18 48 8
v -18 48 2
v -2 48 2
v 2 48 2
v 18 48 2
v -18 48 -2
v -2 48 -2
v 2 48 -2
v 18 48 -2
v -18 48 -8
v -2 48 -8
v 2 48 -8
v 18 48 -8
v -18 58 8
v -8 58 8
v 8 58 8
v 18 58 8
v -18 58 2
v -8 58 2
v 8 58 2
v 18 58 2
v -18 58 -2
v -8 58 -2
v 8 58 -2
v 18 58 -2
v -18 58 -8
v -8 58 -8
v 8 58 -8
v 18 58 -8
v -24 62 8
v -18 62 8
v 18 62 8
v 24 62 8
v -24 62 -8
v -18 62 -8
v 18 62 -8
v 24 62 -8
v -8 66 8
v -2 66 8
v 2 66 8
v 8 66 8
v -8 66 2
v -2 66 2
v 2 66 2
v 8 66 2
v -8 66 -2
v -2 66 -2
v 2 66 -2
v 8 66 -2
v -8 66 -8
v -2 66 -8
v 2 66 -8
v 8 66 -8

# faces
f 3/2/1 2/2/1 1/2/1
f 4/2/1 2/2/1 3/2/1
f 5/2/1 2/2/1 4/2/1
f 6/2/1 2/2/1 5/2/1
f 7/2/1 5/2/1 4/2/1
f 8/2/1 5/2/1 7/2/1
f 9/3/1 8/3/1 7/3/1
f 10/3/1 8/3/1 9/3/1
f 15/2/1 12/2/1 11/2/1
f 16/2/1 12/2/1 15/2/1
f 17/2/1 14/2/1 13/2/1
f 18/2/1 14/2/1 17/2/1
f 23/2/1 20/2/1 19/2/1
f 24/2/1 20/2/1 23/2/1
f 25/2/1 22/2/1 21/2/1
f 26/2/1 22/2/1 25/2/1
f 35/3/1 28/3/1 27/3/1
f 36/1/1 29/1/1 28/1/1
f 36/3/1 28/3/1 35/3/1
f 37/3/1 30/3/1 29/3/1
f 37/1/1 29/1/1 36/1/1
f 38/3/1 30/3/1 37/3/1
f 39/3/1 32/3/1 31/3/1
f 40/1/1 33/1/1 32/1/1
f 40/3/1 32/3/1 39/3/1
f 41/3/1 34/3/1 33/3/1
f 41/1/1 33/1/1 40/1/1
f 42/3/1 34/3/1 41/3/1
f 43/1/1 37/1/1 36/1/1
f 44/1/1 37/1/1 43/1/1
f 45/1/1 41/1/1 40/1/1
f 46/1/1 41/1/1 45/1/1
f 49/1/1 48/1/1 47/1/1
f 50/1/1 48/1/1 49/1/1
f 55/1/1 52/1/1 51/1/1
f 58/1/1 54/1/1 53/1/1
f 59/1/1 56/1/1 55/1/1
f 59/1/1 55/1/1 51/1/1
f 60/1/1 56/1/1 59/1/1
f 61/1/1 58/1/1 57/1/1
f 62/1/1 54/1/1 58/1/1
f 62/1/1 58/1/1 61/1/1
f 67/1/1 64/1/1 63/1/1
f 68/1/1 64/1/1 67/1/1
f 69/1/1 66/1/1 65/1/1
f 70/1/1 66/1/1 69/1/1
f 75/1/1 72/1/1 71/1/1
f 78/3/1 74/3/1 73/3/1
f 79/1/1 76/1/1 75/1/1
f 79/1/1 75/1/1 71/1/1
f 80/1/1 76/1/1 79/1/1
f 82/3/1 78/3/1 77/3/1
f 83/3/1 82/3/1 81/3/1
f 84/3/1 78/3/1 82/3/1
f 84/3/1 82/3/1 83/3/1
f 84/3/1 74/3/1 78/3/1
f 89/1/1 86/1/1 85/1/1
f 90/1/1 86/1/1 89/1/1
f 91/1/1 88/1/1 87/1/1
f 92/1/1 88/1/1 91/1/1
f 97/1/1 94/1/1 93/1/1
f 98/1/1 94/1/1 97/1/1
f 99/1/1 96/1/1 95/1/1
f 100/1/1 96/1/1 99/1/1
f 105/1/1 102/1/1 101/1/1
f 106/1/1 102/1/1 105/1/1
f 107/1/1 104/1/1 103/1/1
f 108/1/1 104/1/1 107/1/1
f 111/1/1 110/1/1 109/1/1
f 112/1/1 110/1/1 111/1/1
f 113/1/1 110/1/1 112/1/1
f 114/1/1 110/1/1 113/1/1
f 116/1/1 113/1/1 112/1/1
f 117/1/1 113/1/1 116/1/1
f 119/1/1 116/1/1 115/1/1
f 119/1/1 118/1/1 117/1/1
f 119/1/1 117/1/1 116/1/1
f 120/1/1 118/1/1 119/1/1
f 121/1/1 118/1/1 120/1/1
f 122/1/1 118/1/1 121/1/1
f 124/1/1 121/1/1 120/1/1
f 125/1/1 121/1/1 124/1/1
f 127/1/1 124/1/1 123/1/1
f 127/1/1 126/1/1 125/1/1
f 127/1/1 125/1/1 124/1/1
f 128/1/1 126/1/1 127/1/1
f 129/1/2 130/1/2 131/1/2
f 131/1/2 130/1/2 132/1/2
f 132/1/2 130/1/2 133/1/2
f 133/1/2 130/1/2 134/1/2
f 132/1/2 133/1/2 136/1/2
f 136/1/2 133/1/2 137/1/2
f 135/1/2 136/1/2 139/1/2
f 137/1/2 138/1/2 139/1/2
f 136/1/2 137/1/2 139/1/2
f 139/1/2 138/1/2 140/1/2
f 140/1/2 138/1/2 141/1/2
f 141/1/2 138/1/2 142/1/2
f 140/1/2 141/1/2 144/1/2
f 144/1/2 141/1/2 145/1/2
f 143/1/2 144/1/2 147/1/2
f 145/1/2 146/1/2 147/1/2
f 144/1/2 145/1/2 147/1/2
f 147/1/2 146/1/2 148/1/2
f 149/1/2 150/1/2 153/1/2
f 153/1/2 150/1/2 154/1/2
f 151/1/2 152/1/2 155/1/2
f 155/1/2 152/1/2 156/1/2
f 157/1/2 158/1/2 161/1/2
f 161/1/2 158/1/2 162/1/2
f 159/1/2 160/1/2 163/1/2
f 163/1/2 160/1/2 164/1/2
f 165/1/2 166/1/2 169/1/2
f 169/1/2 166/1/2 170/1/2
f 167/1/2 168/1/2 171/1/2
f 171/1/2 168/1/2 172/1/2
f 173/1/2 174/1/2 177/1/2
f 175/3/2 176/3/2 180/3/2
f 177/1/2 178/1/2 181/1/2
f 173/1/2 177/1/2 181/1/2
f 181/1/2 178/1/2 182/1/2
f 179/3/2 180/3/2 184/3/2
f 183/3/2 184/3/2 185/3/2
f 184/3/2 180/3/2 186/3/2
f 185/3/2 184/3/2 186/3/2
f 180/3/2 176/3/2 186/3/2
f 187/1/2 188/1/2 191/1/2
f 189/1/2 190/1/2 194/1/2
f 191/1/2 192/1/2 195/1/2
f 187/1/2 191/1/2 195/1/2
f 195/1/2 192/1/2 196/1/2
f 193/1/2 194/1/2 197/1/2
f 194/1/2 190/1/2 198/1/2
f 197/1/2 194/1/2 198/1/2
f 199/1/2 200/1/2 203/1/2
f 203/1/2 200/1/2 204/1/2
f 201/1/2 202/1/2 205/1/2
f 205/1/2 202/1/2 206/1/2
f 207/1/2 208/1/2 209/1/2
f 209/1/2 208/1/2 210/1/2
f 211/3/2 212/3/2 219/3/2
f 212/1/2 213/1/2 220/1/2
f 219/3/2 212/3/2 220/3/2
f 213/3/2 214/3/2 221/3/2
f 220/1/2 213/1/2 221/1/2
f 221/3/2 214/3/2 222/3/2
f 215/3/2 216/3/2 223/3/2
f 216/1/2 217/1/2 224/1/2
f 223/3/2 216/3/2 224/3/2
f 217/3/2 218/3/2 225/3/2
f 224/1/2 217/1/2 225/1/2
f 225/3/2 218/3/2 226/3/2
f 220/1/2 221/1/2 227/1/2
f 227/1/2 221/1/2 228/1/2
f 224/1/2 225/1/2 229/1/2
f 229/1/2 225/1/2 230/1/2
f 231/2/2 232/2/2 235/2/2
f 235/2/2 232/2/2 236/2/2
f 233/2/2 234/2/2 237/2/2
f 237/2/2 234/2/2 238/2/2
f 239/2/2 240/2/2 243/2/2
f 243/2/2 240/2/2 244/2/2
f 241/2/2 242/2/2 245/2/2
f 245/2/2 242/2/2 246/2/2
f 247/2/2 248/2/2 249/2/2
f 249/2/2 248/2/2 250/2/2
f 250/2/2 248/2/2 251/2/2
f 251/2/2 248/2/2 252/2/2
f 250/2/2 251/2/2 253/2/2
f 253/2/2 251/2/2 254/2/2
f 253/3/2 254/3/2 255/3/2
f 255/3/2 254/3/2 256/3/2
f 259/2/3 258/2/3 257/2/3
f 260/2/3 258/2/3 259/2/3
f 261/3/3 260/3/3 259/3/3
f 262/3/3 260/3/3 261/3/3
f 264/1/3 262/1/3 261/1/3
f 264/1/3 263/1/3 262/1/3
f 265/1/3 263/1/3 264/1/3
f 266/3/3 265/3/3 264/3/3
f 267/3/3 265/3/3 266/3/3
f 268/1/3 267/1/3 266/1/3
f 269/1/3 267/1/3 268/1/3
f 270/1/3 267/1/3 269/1/3
f 271/3/3 269/3/3 268/3/3
f 272/3/3 269/3/3 271/3/3
f 273/2/3 272/2/3 271/2/3
f 274/2/3 272/2/3 273/2/3
f 277/2/3 276/2/3 275/2/3
f 278/2/3 276/2/3 277/2/3
f 279/3/3 278/3/3 277/3/3
f 280/3/3 278/3/3 279/3/3
f 283/3/3 282/3/3 281/3/3
f 284/3/3 282/3/3 283/3/3
f 285/2/3 284/2/3 283/2/3
f 286/2/3 284/2/3 285/2/3
f 289/2/3 288/2/3 287/2/3
f 290/2/3 288/2/3 289/2/3
f 292/3/3 290/3/3 289/3/3
f 292/3/3 291/3/3 290/3/3
f 293/3/3 291/3/3 292/3/3
f 296/3/3 295/3/3 294/3/3
f 297/3/3 295/3/3 296/3/3
f 298/3/3 295/3/3 297/3/3
f 299/2/3 297/2/3 296/2/3
f 300/2/3 297/2/3 299/2/3
f 303/1/3 302/1/3 301/1/3
f 304/1/3 302/1/3 303/1/3
f 307/1/3 306/1/3 305/1/3
f 308/1/3 306/1/3 307/1/3
f 311/1/3 310/1/3 309/1/3
f 312/1/3 310/1/3 311/1/3
f 313/1/3 310/1/3 312/1/3
f 314/1/3 310/1/3 313/1/3
f 315/1/3 310/1/3 314/1/3
f 316/1/3 310/1/3 315/1/3
f 318/1/3 313/1/3 312/1/3
f 319/1/3 315/1/3 314/1/3
f 321/1/3 318/1/3 317/1/3
f 322/1/3 318/1/3 321/1/3
f 323/1/3 318/1/3 322/1/3
f 324/1/3 318/1/3 323/1/3
f 325/1/3 313/1/3 318/1/3
f 325/1/3 318/1/3 324/1/3
f 326/1/3 319/1/3 314/1/3
f 326/1/3 320/1/3 319/1/3
f 327/1/3 320/1/3 326/1/3
f 328/3/3 324/3/3 323/3/3
f 329/3/3 324/3/3 328/3/3
f 333/1/3 329/1/3 328/1/3
f 333/1/3 330/1/3 329/1/3
f 334/1/3 330/1/3 333/1/3
f 335/1/3 330/1/3 334/1/3
f 336/1/3 330/1/3 335/1/3
f 337/1/3 332/1/3 331/1/3
f 338/1/3 332/1/3 337/1/3
f 340/1/3 330/1/3 336/1/3
f 341/1/3 330/1/3 340/1/3
f 342/1/3 337/1/3 331/1/3
f 343/1/3 337/1/3 342/1/3
f 345/1/3 341/1/3 340/1/3
f 345/1/3 344/1/3 343/1/3
f 345/1/3 343/1/3 342/1/3
f 345/1/3 342/1/3 341/1/3
f 345/1/3 340/1/3 339/1/3
f 346/1/3 344/1/3 345/1/3
f 350/2/3 348/2/3 347/2/3
f 351/2/3 348/2/3 350/2/3
f 352/2/3 348/2/3 351/2/3
f 353/3/3 349/3/3 348/3/3
f 353/2/3 348/2/3 352/2/3
f 354/3/3 349/3/3 353/3/3
f 355/3/3 349/3/3 354/3/3
f 356/3/3 349/3/3 355/3/3
f 357/3/3 349/3/3 356/3/3
f 361/3/3 359/3/3 358/3/3
f 363/3/3 361/3/3 360/3/3
f 365/2/3 363/2/3 362/2/3
f 366/2/3 365/2/3 364/2/3
f 367/3/3 361/3/3 363/3/3
f 367/2/3 365/2/3 366/2/3
f 367/2/3 363/2/3 365/2/3
f 368/3/3 359/3/3 361/3/3
f 368/3/3 361/3/3 367/3/3
f 374/1/3 370/1/3 369/1/3
f 375/1/3 372/1/3 371/1/3
f 377/1/3 374/1/3 373/1/3
f 378/1/3 370/1/3 374/1/3
f 378/1/3 374/1/3 377/1/3
f 379/1/3 376/1/3 375/1/3
f 379/1/3 375/1/3 371/1/3
f 380/1/3 376/1/3 379/1/3
f 385/1/3 382/1/3 381/1/3
f 386/1/3 382/1/3 385/1/3
f 387/1/3 384/1/3 383/1/3
f 388/1/3 384/1/3 387/1/3
f 389/1/3 382/1/3 386/1/3
f 390/1/3 382/1/3 389/1/3
f 391/1/3 387/1/3 383/1/3
f 392/1/3 387/1/3 391/1/3
f 395/1/3 394/1/3 393/1/3
f 396/1/3 394/1/3 395/1/3
f 399/1/3 398/1/3 397/1/3
f 400/1/3 398/1/3 399/1/3
f 401/1/4 402/1/4 403/1/4
f 403/1/4 402/1/4 404/1/4
f 405/1/4 406/1/4 407/1/4
f 407/1/4 406/1/4 408/1/4
f 409/1/4 410/1/4 414/1/4
f 411/1/4 412/1/4 415/1/4
f 413/1/4 414/1/4 417/1/4
f 414/1/4 410/1/4 418/1/4
f 417/1/4 414/1/4 418/1/4
f 415/1/4 416/1/4 419/1/4
f 411/1/4 415/1/4 419/1/4
f 419/1/4 416/1/4 420/1/4
f 421/1/4 422/1/4 425/1/4
f 425/1/4 422/1/4 426/1/4
f 423/1/4 424/1/4 427/1/4
f 427/1/4 424/1/4 428/1/4
f 426/1/4 422/1/4 429/1/4
f 429/1/4 422/1/4 430/1/4
f 423/1/4 427/1/4 431/1/4
f 431/1/4 427/1/4 432/1/4
f 433/2/4 434/2/4 436/2/4
f 436/2/4 434/2/4 437/2/4
f 437/2/4 434/2/4 438/2/4
f 434/3/4 435/3/4 439/3/4
f 438/2/4 434/2/4 439/2/4
f 439/3/4 435/3/4 440/3/4
f 440/3/4 435/3/4 441/3/4
f 441/3/4 435/3/4 442/3/4
f 442/3/4 435/3/4 443/3/4
f 444/3/4 445/3/4 447/3/4
f 446/3/4 447/3/4 449/3/4
f 448/2/4 449/2/4 451/2/4
f 450/2/4 451/2/4 452/2/4
f 449/3/4 447/3/4 453/3/4
f 452/2/4 451/2/4 453/2/4
f 451/2/4 449/2/4 453/2/4
f 447/3/4 445/3/4 454/3/4
f 453/3/4 447/3/4 454/3/4
f 455/1/4 456/1/4 457/1/4
f 457/1/4 456/1/4 458/1/4
f 458/1/4 456/1/4 459/1/4
f 459/1/4 456/1/4 460/1/4
f 460/1/4 456/1/4 461/1/4
f 461/1/4 456/1/4 462/1/4
f 458/1/4 459/1/4 464/1/4
f 460/1/4 461/1/4 465/1/4
f 463/1/4 464/1/4 467/1/4
f 467/1/4 464/1/4 468/1/4
f 468/1/4 464/1/4 469/1/4
f 464/1/4 459/1/4 470/1/4
f 469/1/4 464/1/4 470/1/4
f 460/1/4 465/1/4 471/1/4
f 465/1/4 466/1/4 471/1/4
f 471/1/4 466/1/4 472/1/4
f 473/1/4 474/1/4 478/1/4
f 477/1/4 478/1/4 479/1/4
f 478/1/4 474/1/4 480/1/4
f 479/1/4 478/1/4 480/1/4
f 475/1/4 476/1/4 481/1/4
f 481/1/4 476/1/4 482/1/4
f 480/1/4 474/1/4 484/1/4
f 484/1/4 474/1/4 485/1/4
f 475/1/4 481/1/4 486/1/4
f 486/1/4 481/1/4 487/1/4
f 484/1/4 485/1/4 489/1/4
f 487/1/4 488/1/4 489/1/4
f 486/1/4 487/1/4 489/1/4
f 485/1/4 486/1/4 489/1/4
f 483/1/4 484/1/4 489/1/4
f 489/1/4 488/1/4 490/1/4
f 491/1/4 492/1/4 493/1/4
f 493/1/4 492/1/4 494/1/4
f 495/1/4 496/1/4 497/1/4
f 497/1/4 496/1/4 498/1/4
f 499/2/4 500/2/4 501/2/4
f 501/2/4 500/2/4 502/2/4
f 501/3/4 502/3/4 504/3/4
f 502/3/4 503/3/4 504/3/4
f 504/3/4 503/3/4 505/3/4
f 506/3/4 507/3/4 508/3/4
f 508/3/4 507/3/4 509/3/4
f 509/3/4 507/3/4 510/3/4
f 508/2/4 509/2/4 511/2/4
f 511/2/4 509/2/4 512/2/4
f 513/2/4 514/2/4 515/2/4
f 515/2/4 514/2/4 516/2/4
f 515/3/4 516/3/4 517/3/4
f 517/3/4 516/3/4 518/3/4
f 519/3/4 520/3/4 521/3/4
f 521/3/4 520/3/4 522/3/4
f 521/2/4 522/2/4 523/2/4
f 523/2/4 522/2/4 524/2/4
f 525/2/4 526/2/4 527/2/4
f 527/2/4 526/2/4 528/2/4
f 527/3/4 528/3/4 529/3/4
f 527/3/4 529/3/4 531/3/4
f 529/3/4 530/3/4 531/3/4
f 531/3/4 530/3/4 532/3/4
f 527/3/4 531/3/4 533/3/4
f 533/3/4 531/3/4 534/3/4
f 533/2/4 534/2/4 535/2/4
f 535/2/4 534/2/4 536/2/4
f 545/3/5 539/3/5 538/3/5
f 545/1/5 540/1/5 539/1/5
f 546/3/5 541/3/5 540/3/5
f 546/1/5 540/1/5 545/1/5
f 547/1/5 542/1/5 541/1/5
f 547/3/5 541/3/5 546/3/5
f 548/3/5 543/3/5 542/3/5
f 548/1/5 542/1/5 547/1/5
f 549/2/5 538/2/5 537/2/5
f 550/3/5 547/3/5 546/3/5
f 550/2/5 538/2/5 549/2/5
f 550/3/5 545/3/5 538/3/5
f 550/3/5 548/3/5 547/3/5
f 550/3/5 546/3/5 545/3/5
f 551/3/5 543/3/5 548/3/5
f 551/3/5 548/3/5 550/3/5
f 551/2/5 544/2/5 543/2/5
f 552/2/5 544/2/5 551/2/5
f 557/1/5 554/1/5 553/1/5
f 558/1/5 554/1/5 557/1/5
f 559/1/5 556/1/5 555/1/5
f 560/1/5 556/1/5 559/1/5
f 565/1/5 562/1/5 561/1/5
f 566/1/5 562/1/5 565/1/5
f 567/1/5 564/1/5 563/1/5
f 568/1/5 564/1/5 567/1/5
f 573/1/5 570/1/5 569/1/5
f 574/1/5 570/1/5 573/1/5
f 575/1/5 572/1/5 571/1/5
f 576/1/5 572/1/5 575/1/5
f 581/1/5 578/1/5 577/1/5
f 582/1/5 578/1/5 581/1/5
f 583/1/5 580/1/5 579/1/5
f 584/1/5 580/1/5 583/1/5
f 589/1/5 586/1/5 585/1/5
f 590/1/5 586/1/5 589/1/5
f 591/1/5 588/1/5 587/1/5
f 592/1/5 588/1/5 591/1/5
f 593/2/6 594/2/6 599/2/6
f 594/3/6 595/3/6 600/3/6
f 599/2/6 594/2/6 600/2/6
f 600/3/6 595/3/6 601/3/6
f 596/3/6 597/3/6 602/3/6
f 597/2/6 598/2/6 603/2/6
f 602/3/6 597/3/6 603/3/6
f 603/2/6 598/2/6 604/2/6
f 593/2/6 599/2/6 605/2/6
f 605/2/6 599/2/6 606/2/6
f 604/2/6 598/2/6 607/2/6
f 607/2/6 598/2/6 608/2/6
f 609/2/6 610/2/6 613/2/6
f 611/2/6 612/2/6 618/2/6
f 609/2/6 613/2/6 619/2/6
f 613/2/6 614/2/6 619/2/6
f 614/3/6 615/3/6 620/3/6
f 619/2/6 614/2/6 620/2/6
f 620/3/6 615/3/6 621/3/6
f 616/3/6 617/3/6 622/3/6
f 617/2/6 618/2/6 623/2/6
f 622/3/6 617/3/6 623/3/6
f 618/2/6 612/2/6 624/2/6
f 623/2/6 618/2/6 624/2/6
f 625/2/6 626/2/6 631/2/6
f 626/3/6 627/3/6 632/3/6
f 631/2/6 626/2/6 632/2/6
f 632/3/6 627/3/6 633/3/6
f 628/3/6 629/3/6 634/3/6
f 629/2/6 630/2/6 635/2/6
f 634/3/6 629/3/6 635/3/6
f 635/2/6 630/2/6 636/2/6
f 625/2/6 631/2/6 637/2/6
f 637/2/6 631/2/6 638/2/6
f 636/2/6 630/2/6 639/2/6
f 639/2/6 630/2/6 640/2/6
f 641/2/6 642/2/6 645/2/6
f 643/2/6 644/2/6 650/2/6
f 641/2/6 645/2/6 651/2/6
f 645/2/6 646/2/6 651/2/6
f 646/3/6 647/3/6 652/3/6
f 651/2/6 646/2/6 652/2/6
f 652/3/6 647/3/6 653/3/6
f 648/3/6 649/3/6 654/3/6
f 649/2/6 650/2/6 655/2/6
f 654/3/6 649/3/6 655/3/6
f 650/2/6 644/2/6 656/2/6
f 655/2/6 650/2/6 656/2/6
f 657/2/6 658/2/6 661/2/6
f 659/2/6 660/2/6 662/2/6
f 657/2/6 661/2/6 663/2/6
f 662/2/6 660/2/6 664/2/6
f 657/2/6 663/2/6 665/2/6
f 665/2/6 663/2/6 666/2/6
f 664/2/6 660/2/6 667/2/6
f 667/2/6 660/2/6 668/2/6
f 669/2/6 670/2/6 673/2/6
f 671/2/6 672/2/6 674/2/6
f 669/2/6 673/2/6 675/2/6
f 674/2/6 672/2/6 676/2/6
f 669/2/6 675/2/6 677/2/6
f 677/2/6 675/2/6 678/2/6
f 676/2/6 672/2/6 679/2/6
f 679/2/6 672/2/6 680/2/6
f 681/1/6 682/1/6 686/1/6
f 683/1/6 684/1/6 687/1/6
f 685/3/6 686/3/6 689/3/6
f 689/3/6 686/3/6 690/3/6
f 687/3/6 688/3/6 691/3/6
f 691/3/6 688/3/6 692/3/6
f 690/3/6 686/3/6 694/3/6
f 687/3/6 691/3/6 695/3/6
f 693/3/6 694/3/6 697/3/6
f 694/3/6 686/3/6 697/3/6
f 686/1/6 682/1/6 698/1/6
f 697/3/6 686/3/6 698/3/6
f 682/3/6 683/3/6 699/3/6
f 698/1/6 682/1/6 699/1/6
f 699/3/6 683/3/6 700/3/6
f 700/3/6 683/3/6 701/3/6
f 683/1/6 687/1/6 702/1/6
f 701/3/6 683/3/6 702/3/6
f 695/3/6 696/3/6 703/3/6
f 702/1/6 687/1/6 703/1/6
f 687/3/6 695/3/6 703/3/6
f 703/3/6 696/3/6 704/3/6
f 693/3/6 697/3/6 705/3/6
f 705/3/6 697/3/6 706/3/6
f 704/3/6 696/3/6 707/3/6
f 707/3/6 696/3/6 708/3/6
f 709/3/6 710/3/6 713/3/6
f 711/3/6 712/3/6 716/3/6
f 713/3/6 714/3/6 717/3/6
f 709/3/6 713/3/6 717/3/6
f 717/3/6 714/3/6 718/3/6
f 715/3/6 716/3/6 719/3/6
f 716/3/6 712/3/6 719/3/6
f 719/3/6 712/3/6 720/3/6
f 718/3/6 714/3/6 722/3/6
f 715/3/6 719/3/6 723/3/6
f 721/3/6 722/3/6 725/3/6
f 722/3/6 714/3/6 726/3/6
f 725/3/6 722/3/6 726/3/6
f 723/3/6 724/3/6 727/3/6
f 715/3/6 723/3/6 727/3/6
f 727/3/6 724/3/6 728/3/6
f 731/3/6 732/3/6 735/3/6
f 729/3/6 730/3/6 736/3/6
f 736/3/6 730/3/6 737/3/6
f 733/3/6 734/3/6 738/3/6
f 731/3/6 735/3/6 739/3/6
f 737/3/6 738/3/6 739/3/6
f 736/3/6 737/3/6 739/3/6
f 735/3/6 736/3/6 739/3/6
f 739/3/6 738/3/6 740/3/6
f 740/3/6 738/3/6 741/3/6
f 738/3/6 734/3/6 742/3/6
f 741/3/6 738/3/6 742/3/6
f 731/3/6 739/3/6 743/3/6
f 743/3/6 739/3/6 744/3/6
f 742/3/6 734/3/6 745/3/6
f 745/3/6 734/3/6 746/3/6
f 740/3/6 741/3/6 748/3/6
f 748/3/6 741/3/6 749/3/6
f 747/3/6 748/3/6 751/3/6
f 749/3/6 750/3/6 751/3/6
f 748/3/6 749/3/6 751/3/6
f 751/3/6 750/3/6 752/3/6
f 753/1/6 754/1/6 757/1/6
f 757/1/6 754/1/6 758/1/6
f 755/1/6 756/1/6 759/1/6
f 759/1/6 756/1/6 760/1/6
f 761/1/6 762/1/6 765/1/6
f 765/1/6 762/1/6 766/1/6
f 763/1/6 764/1/6 767/1/6
f 767/1/6 764/1/6 768/1/6
f 769/1/6 770/1/6 773/1/6
f 773/1/6 770/1/6 774/1/6
f 771/1/6 772/1/6 775/1/6
f 775/1/6 772/1/6 776/1/6
f 777/1/6 778/1/6 781/1/6
f 781/1/6 778/1/6 782/1/6
f 779/1/6 780/1/6 783/1/6
f 783/1/6 780/1/6 784/1/6
f 785/1/6 786/1/6 789/1/6
f 789/1/6 786/1/6 790/1/6
f 787/1/6 788/1/6 791/1/6
f 791/1/6 788/1/6 792/1/6
f 793/1/6 794/1/6 797/1/6
f 797/1/6 794/1/6 798/1/6
f 795/1/6 796/1/6 799/1/6
f 799/1/6 796/1/6 800/1/6
f 801/1/6 802/1/6 805/1/6
f 805/1/6 802/1/6 806/1/6
f 803/1/6 804/1/6 807/1/6
f 807/1/6 804/1/6 808/1/6
f 809/1/6 810/1/6 813/1/6
f 813/1/6 810/1/6 814/1/6
f 811/1/6 812/1/6 815/1/6
f 815/1/6 812/1/6 816/1/6
f 817/1/6 818/1/6 821/1/6
f 821/1/6 818/1/6 822/1/6
f 819/1/6 820/1/6 823/1/6
f 823/1/6 820/1/6 824/1/6
