# MagicaVoxel @ Ephtracy

# group
g wall

# material
mtllib wall.mtl
usemtl palette

# normals
vn -1 0 0
vn 1 0 0
vn 0 0 1
vn 0 0 -1
vn 0 -1 0
vn 0 1 0

# texcoords
vt 0.591797 0.5
vt 0.990234 0.5

# verts
v -20 0 5
v -20 0 -5
v -20 10 5
v -20 10 4
v -20 14 4
v -20 14 3
v -20 18 3
v -20 18 2
v -20 21 2
v -20 21 1
v -20 23 1
v -20 23 -0
v -20 24 -0
v -20 24 -1
v -20 25 -1
v -20 25 -2
v -20 26 -2
v -20 26 -5
v 20 0 5
v 20 0 -5
v 20 10 5
v 20 10 4
v 20 14 4
v 20 14 3
v 20 18 3
v 20 18 2
v 20 21 2
v 20 21 1
v 20 23 1
v 20 23 -0
v 20 24 -0
v 20 24 -1
v 20 25 -1
v 20 25 -2
v 20 26 -2
v 20 26 -5
v -20 0 5
v -20 10 5
v 20 0 5
v 20 10 5
v -20 10 4
v -20 14 4
v 20 10 4
v 20 14 4
v -20 14 3
v -20 18 3
v 20 14 3
v 20 18 3
v -20 18 2
v -20 21 2
v 20 18 2
v 20 21 2
v -20 21 1
v -20 23 1
v -18 21 1
v -18 23 1
v -14 21 1
v -14 23 1
v -10 21 1
v -10 23 1
v -6 21 1
v -6 23 1
v -2 21 1
v -2 23 1
v 2 21 1
v 2 23 1
v 6 21 1
v 6 23 1
v 10 21 1
v 10 23 1
v 14 21 1
v 14 23 1
v 18 21 1
v 18 23 1
v 20 21 1
v 20 23 1
v -20 23 -0
v -20 24 -0
v -18 23 -0
v -18 24 -0
v -14 23 -0
v -14 24 -0
v -10 23 -0
v -10 24 -0
v -6 23 -0
v -6 24 -0
v -2 23 -0
v -2 24 -0
v 2 23 -0
v 2 24 -0
v 6 23 -0
v 6 24 -0
v 10 23 -0
v 10 24 -0
v 14 23 -0
v 14 24 -0
v 18 23 -0
v 18 24 -0
v 20 23 -0
v 20 24 -0
v -20 24 -1
v -20 25 -1
v -18 24 -1
v -18 25 -1
v -14 24 -1
v -14 25 -1
v -10 24 -1
v -10 25 -1
v -6 24 -1
v -6 25 -1
v -2 24 -1
v -2 25 -1
v 2 24 -1
v 2 25 -1
v 6 24 -1
v 6 25 -1
v 10 24 -1
v 10 25 -1
v 14 24 -1
v 14 25 -1
v 18 24 -1
v 18 25 -1
v 20 24 -1
v 20 25 -1
v -20 25 -2
v -20 26 -2
v -18 25 -2
v -18 26 -2
v -14 25 -2
v -14 26 -2
v -10 25 -2
v -10 26 -2
v -6 25 -2
v -6 26 -2
v -2 25 -2
v -2 26 -2
v 2 25 -2
v 2 26 -2
v 6 25 -2
v 6 26 -2
v 10 25 -2
v 10 26 -2
v 14 25 -2
v 14 26 -2
v 18 25 -2
v 18 26 -2
v 20 25 -2
v 20 26 -2
v -20 0 -5
v -20 26 -5
v 20 0 -5
v 20 26 -5
v -20 0 5
v 20 0 5
v -18 0 1
v -14 0 1
v -10 0 1
v -6 0 1
v -2 0 1
v 2 0 1
v 6 0 1
v 10 0 1
v 14 0 1
v 18 0 1
v -18 0 -4
v -14 0 -4
v -10 0 -4
v -6 0 -4
v -2 0 -4
v 2 0 -4
v 6 0 -4
v 10 0 -4
v 14 0 -4
v 18 0 -4
v -20 0 -5
v 20 0 -5
v -20 10 5
v 20 10 5
v -20 10 4
v 20 10 4
v -20 14 4
v 20 14 4
v -20 14 3
v 20 14 3
v -20 18 3
v 20 18 3
v -20 18 2
v 20 18 2
v -20 21 2
v 20 21 2
v -20 21 1
v -18 21 1
v -14 21 1
v -10 21 1
v -6 21 1
v -2 21 1
v 2 21 1
v 6 21 1
v 10 21 1
v 14 21 1
v 18 21 1
v 20 21 1
v -20 23 1
v -18 23 1
v -14 23 1
v -10 23 1
v -6 23 1
v -2 23 1
v 2 23 1
v 6 23 1
v 10 23 1
v 14 23 1
v 18 23 1
v 20 23 1
v -20 23 -0
v -18 23 -0
v -14 23 -0
v -10 23 -0
v -6 23 -0
v -2 23 -0
v 2 23 -0
v 6 23 -0
v 10 23 -0
v 14 23 -0
v 18 23 -0
v 20 23 -0
v -20 24 -0
v -18 24 -0
v -14 24 -0
v -10 24 -0
v -6 24 -0
v -2 24 -0
v 2 24 -0
v 6 24 -0
v 10 24 -0
v 14 24 -0
v 18 24 -0
v 20 24 -0
v -20 24 -1
v -18 24 -1
v -14 24 -1
v -10 24 -1
v -6 24 -1
v -2 24 -1
v 2 24 -1
v 6 24 -1
v 10 24 -1
v 14 24 -1
v 18 24 -1
v 20 24 -1
v -20 25 -1
v -18 25 -1
v -14 25 -1
v -10 25 -1
v -6 25 -1
v -2 25 -1
v 2 25 -1
v 6 25 -1
v 10 25 -1
v 14 25 -1
v 18 25 -1
v 20 25 -1
v -20 25 -2
v -18 25 -2
v -14 25 -2
v -10 25 -2
v -6 25 -2
v -2 25 -2
v 2 25 -2
v 6 25 -2
v 10 25 -2
v 14 25 -2
v 18 25 -2
v 20 25 -2
v -20 26 -2
v -18 26 -2
v -14 26 -2
v -10 26 -2
v -6 26 -2
v -2 26 -2
v 2 26 -2
v 6 26 -2
v 10 26 -2
v 14 26 -2
v 18 26 -2
v 20 26 -2
v -18 26 -4
v -14 26 -4
v -10 26 -4
v -6 26 -4
v -2 26 -4
v 2 26 -4
v 6 26 -4
v 10 26 -4
v 14 26 -4
v 18 26 -4
v -20 26 -5
v 20 26 -5

# faces
f 3/2/1 2/2/1 1/2/1
f 4/2/1 2/2/1 3/2/1
f 5/2/1 2/2/1 4/2/1
f 6/2/1 2/2/1 5/2/1
f 7/2/1 2/2/1 6/2/1
f 8/2/1 2/2/1 7/2/1
f 9/2/1 2/2/1 8/2/1
f 10/2/1 2/2/1 9/2/1
f 11/2/1 2/2/1 10/2/1
f 12/2/1 2/2/1 11/2/1
f 13/2/1 2/2/1 12/2/1
f 14/2/1 2/2/1 13/2/1
f 15/2/1 2/2/1 14/2/1
f 16/2/1 2/2/1 15/2/1
f 17/2/1 2/2/1 16/2/1
f 18/2/1 2/2/1 17/2/1
f 19/2/2 20/2/2 21/2/2
f 21/2/2 20/2/2 22/2/2
f 22/2/2 20/2/2 23/2/2
f 23/2/2 20/2/2 24/2/2
f 24/2/2 20/2/2 25/2/2
f 25/2/2 20/2/2 26/2/2
f 26/2/2 20/2/2 27/2/2
f 27/2/2 20/2/2 28/2/2
f 28/2/2 20/2/2 29/2/2
f 29/2/2 20/2/2 30/2/2
f 30/2/2 20/2/2 31/2/2
f 31/2/2 20/2/2 32/2/2
f 32/2/2 20/2/2 33/2/2
f 33/2/2 20/2/2 34/2/2
f 34/2/2 20/2/2 35/2/2
f 35/2/2 20/2/2 36/2/2
f 39/2/3 38/2/3 37/2/3
f 40/2/3 38/2/3 39/2/3
f 43/2/3 42/2/3 41/2/3
f 44/2/3 42/2/3 43/2/3
f 47/2/3 46/2/3 45/2/3
f 48/2/3 46/2/3 47/2/3
f 51/2/3 50/2/3 49/2/3
f 52/2/3 50/2/3 51/2/3
f 55/2/3 54/2/3 53/2/3
f 56/2/3 54/2/3 55/2/3
f 57/1/3 56/1/3 55/1/3
f 58/1/3 56/1/3 57/1/3
f 59/2/3 58/2/3 57/2/3
f 60/2/3 58/2/3 59/2/3
f 61/1/3 60/1/3 59/1/3
f 62/1/3 60/1/3 61/1/3
f 63/2/3 62/2/3 61/2/3
f 64/2/3 62/2/3 63/2/3
f 65/1/3 64/1/3 63/1/3
f 66/1/3 64/1/3 65/1/3
f 67/2/3 66/2/3 65/2/3
f 68/2/3 66/2/3 67/2/3
f 69/1/3 68/1/3 67/1/3
f 70/1/3 68/1/3 69/1/3
f 71/2/3 70/2/3 69/2/3
f 72/2/3 70/2/3 71/2/3
f 73/1/3 72/1/3 71/1/3
f 74/1/3 72/1/3 73/1/3
f 75/2/3 74/2/3 73/2/3
f 76/2/3 74/2/3 75/2/3
f 79/2/3 78/2/3 77/2/3
f 80/2/3 78/2/3 79/2/3
f 81/1/3 80/1/3 79/1/3
f 82/1/3 80/1/3 81/1/3
f 83/2/3 82/2/3 81/2/3
f 84/2/3 82/2/3 83/2/3
f 85/1/3 84/1/3 83/1/3
f 86/1/3 84/1/3 85/1/3
f 87/2/3 86/2/3 85/2/3
f 88/2/3 86/2/3 87/2/3
f 89/1/3 88/1/3 87/1/3
f 90/1/3 88/1/3 89/1/3
f 91/2/3 90/2/3 89/2/3
f 92/2/3 90/2/3 91/2/3
f 93/1/3 92/1/3 91/1/3
f 94/1/3 92/1/3 93/1/3
f 95/2/3 94/2/3 93/2/3
f 96/2/3 94/2/3 95/2/3
f 97/1/3 96/1/3 95/1/3
f 98/1/3 96/1/3 97/1/3
f 99/2/3 98/2/3 97/2/3
f 100/2/3 98/2/3 99/2/3
f 103/2/3 102/2/3 101/2/3
f 104/2/3 102/2/3 103/2/3
f 105/1/3 104/1/3 103/1/3
f 106/1/3 104/1/3 105/1/3
f 107/2/3 106/2/3 105/2/3
f 108/2/3 106/2/3 107/2/3
f 109/1/3 108/1/3 107/1/3
f 110/1/3 108/1/3 109/1/3
f 111/2/3 110/2/3 109/2/3
f 112/2/3 110/2/3 111/2/3
f 113/1/3 112/1/3 111/1/3
f 114/1/3 112/1/3 113/1/3
f 115/2/3 114/2/3 113/2/3
f 116/2/3 114/2/3 115/2/3
f 117/1/3 116/1/3 115/1/3
f 118/1/3 116/1/3 117/1/3
f 119/2/3 118/2/3 117/2/3
f 120/2/3 118/2/3 119/2/3
f 121/1/3 120/1/3 119/1/3
f 122/1/3 120/1/3 121/1/3
f 123/2/3 122/2/3 121/2/3
f 124/2/3 122/2/3 123/2/3
f 127/2/3 126/2/3 125/2/3
f 128/2/3 126/2/3 127/2/3
f 129/1/3 128/1/3 127/1/3
f 130/1/3 128/1/3 129/1/3
f 131/2/3 130/2/3 129/2/3
f 132/2/3 130/2/3 131/2/3
f 133/1/3 132/1/3 131/1/3
f 134/1/3 132/1/3 133/1/3
f 135/2/3 134/2/3 133/2/3
f 136/2/3 134/2/3 135/2/3
f 137/1/3 136/1/3 135/1/3
f 138/1/3 136/1/3 137/1/3
f 139/2/3 138/2/3 137/2/3
f 140/2/3 138/2/3 139/2/3
f 141/1/3 140/1/3 139/1/3
f 142/1/3 140/1/3 141/1/3
f 143/2/3 142/2/3 141/2/3
f 144/2/3 142/2/3 143/2/3
f 145/1/3 144/1/3 143/1/3
f 146/1/3 144/1/3 145/1/3
f 147/2/3 146/2/3 145/2/3
f 148/2/3 146/2/3 147/2/3
f 149/2/4 150/2/4 151/2/4
f 151/2/4 150/2/4 152/2/4
f 155/2/5 154/2/5 153/2/5
f 156/2/5 154/2/5 155/2/5
f 157/2/5 154/2/5 156/2/5
f 158/2/5 154/2/5 157/2/5
f 159/2/5 154/2/5 158/2/5
f 160/2/5 154/2/5 159/2/5
f 161/2/5 154/2/5 160/2/5
f 162/2/5 154/2/5 161/2/5
f 163/2/5 154/2/5 162/2/5
f 164/2/5 154/2/5 163/2/5
f 165/2/5 155/2/5 153/2/5
f 165/1/5 156/1/5 155/1/5
f 166/2/5 157/2/5 156/2/5
f 166/1/5 156/1/5 165/1/5
f 167/1/5 158/1/5 157/1/5
f 167/2/5 157/2/5 166/2/5
f 168/2/5 159/2/5 158/2/5
f 168/1/5 158/1/5 167/1/5
f 169/1/5 160/1/5 159/1/5
f 169/2/5 159/2/5 168/2/5
f 170/2/5 161/2/5 160/2/5
f 170/1/5 160/1/5 169/1/5
f 171/1/5 162/1/5 161/1/5
f 171/2/5 161/2/5 170/2/5
f 172/2/5 163/2/5 162/2/5
f 172/1/5 162/1/5 171/1/5
f 173/1/5 164/1/5 163/1/5
f 173/2/5 163/2/5 172/2/5
f 174/2/5 154/2/5 164/2/5
f 174/1/5 164/1/5 173/1/5
f 175/2/5 173/2/5 172/2/5
f 175/2/5 172/2/5 171/2/5
f 175/2/5 174/2/5 173/2/5
f 175/2/5 171/2/5 170/2/5
f 175/2/5 170/2/5 169/2/5
f 175/2/5 169/2/5 168/2/5
f 175/2/5 168/2/5 167/2/5
f 175/2/5 167/2/5 166/2/5
f 175/2/5 166/2/5 165/2/5
f 175/2/5 165/2/5 153/2/5
f 176/2/5 154/2/5 174/2/5
f 176/2/5 174/2/5 175/2/5
f 177/2/6 178/2/6 179/2/6
f 179/2/6 178/2/6 180/2/6
f 181/2/6 182/2/6 183/2/6
f 183/2/6 182/2/6 184/2/6
f 185/2/6 186/2/6 187/2/6
f 187/2/6 186/2/6 188/2/6
f 189/2/6 190/2/6 191/2/6
f 191/2/6 190/2/6 192/2/6
f 192/2/6 190/2/6 193/2/6
f 193/2/6 190/2/6 194/2/6
f 194/2/6 190/2/6 195/2/6
f 195/2/6 190/2/6 196/2/6
f 196/2/6 190/2/6 197/2/6
f 197/2/6 190/2/6 198/2/6
f 198/2/6 190/2/6 199/2/6
f 199/2/6 190/2/6 200/2/6
f 200/2/6 190/2/6 201/2/6
f 201/2/6 190/2/6 202/2/6
f 203/2/6 204/2/6 215/2/6
f 204/1/6 205/1/6 216/1/6
f 215/2/6 204/2/6 216/2/6
f 205/2/6 206/2/6 217/2/6
f 216/1/6 205/1/6 217/1/6
f 206/1/6 207/1/6 218/1/6
f 217/2/6 206/2/6 218/2/6
f 207/2/6 208/2/6 219/2/6
f 218/1/6 207/1/6 219/1/6
f 208/1/6 209/1/6 220/1/6
f 219/2/6 208/2/6 220/2/6
f 209/2/6 210/2/6 221/2/6
f 220/1/6 209/1/6 221/1/6
f 210/1/6 211/1/6 222/1/6
f 221/2/6 210/2/6 222/2/6
f 211/2/6 212/2/6 223/2/6
f 222/1/6 211/1/6 223/1/6
f 212/1/6 213/1/6 224/1/6
f 223/2/6 212/2/6 224/2/6
f 213/2/6 214/2/6 225/2/6
f 224/1/6 213/1/6 225/1/6
f 225/2/6 214/2/6 226/2/6
f 227/2/6 228/2/6 239/2/6
f 228/1/6 229/1/6 240/1/6
f 239/2/6 228/2/6 240/2/6
f 229/2/6 230/2/6 241/2/6
f 240/1/6 229/1/6 241/1/6
f 230/1/6 231/1/6 242/1/6
f 241/2/6 230/2/6 242/2/6
f 231/2/6 232/2/6 243/2/6
f 242/1/6 231/1/6 243/1/6
f 232/1/6 233/1/6 244/1/6
f 243/2/6 232/2/6 244/2/6
f 233/2/6 234/2/6 245/2/6
f 244/1/6 233/1/6 245/1/6
f 234/1/6 235/1/6 246/1/6
f 245/2/6 234/2/6 246/2/6
f 235/2/6 236/2/6 247/2/6
f 246/1/6 235/1/6 247/1/6
f 236/1/6 237/1/6 248/1/6
f 247/2/6 236/2/6 248/2/6
f 237/2/6 238/2/6 249/2/6
f 248/1/6 237/1/6 249/1/6
f 249/2/6 238/2/6 250/2/6
f 251/2/6 252/2/6 263/2/6
f 252/1/6 253/1/6 264/1/6
f 263/2/6 252/2/6 264/2/6
f 253/2/6 254/2/6 265/2/6
f 264/1/6 253/1/6 265/1/6
f 254/1/6 255/1/6 266/1/6
f 265/2/6 254/2/6 266/2/6
f 255/2/6 256/2/6 267/2/6
f 266/1/6 255/1/6 267/1/6
f 256/1/6 257/1/6 268/1/6
f 267/2/6 256/2/6 268/2/6
f 257/2/6 258/2/6 269/2/6
f 268/1/6 257/1/6 269/1/6
f 258/1/6 259/1/6 270/1/6
f 269/2/6 258/2/6 270/2/6
f 259/2/6 260/2/6 271/2/6
f 270/1/6 259/1/6 271/1/6
f 260/1/6 261/1/6 272/1/6
f 271/2/6 260/2/6 272/2/6
f 261/2/6 262/2/6 273/2/6
f 272/1/6 261/1/6 273/1/6
f 273/2/6 262/2/6 274/2/6
f 275/2/6 276/2/6 287/2/6
f 276/1/6 277/1/6 287/1/6
f 277/2/6 278/2/6 288/2/6
f 287/1/6 277/1/6 288/1/6
f 278/1/6 279/1/6 289/1/6
f 288/2/6 278/2/6 289/2/6
f 279/2/6 280/2/6 290/2/6
f 289/1/6 279/1/6 290/1/6
f 280/1/6 281/1/6 291/1/6
f 290/2/6 280/2/6 291/2/6
f 281/2/6 282/2/6 292/2/6
f 291/1/6 281/1/6 292/1/6
f 282/1/6 283/1/6 293/1/6
f 292/2/6 282/2/6 293/2/6
f 283/2/6 284/2/6 294/2/6
f 293/1/6 283/1/6 294/1/6
f 284/1/6 285/1/6 295/1/6
f 294/2/6 284/2/6 295/2/6
f 285/2/6 286/2/6 296/2/6
f 295/1/6 285/1/6 296/1/6
f 294/2/6 295/2/6 297/2/6
f 293/2/6 294/2/6 297/2/6
f 295/2/6 296/2/6 297/2/6
f 292/2/6 293/2/6 297/2/6
f 291/2/6 292/2/6 297/2/6
f 290/2/6 291/2/6 297/2/6
f 289/2/6 290/2/6 297/2/6
f 288/2/6 289/2/6 297/2/6
f 287/2/6 288/2/6 297/2/6
f 275/2/6 287/2/6 297/2/6
f 296/2/6 286/2/6 298/2/6
f 297/2/6 296/2/6 298/2/6
