# MagicaVoxel @ Ephtracy

# group
g wall

# material
mtllib wall.mtl
usemtl palette

# normals
vn -1 0 0
vn 1 0 0
vn 0 0 1
vn 0 0 -1
vn 0 -1 0
vn 0 1 0

# texcoords
vt 0.591797 0.5
vt 0.990234 0.5

# verts
v -20 0 5
v -20 0 -5
v -20 10 5
v -20 10 4
v -20 14 4
v -20 14 3
v -20 18 3
v -20 18 2
v -20 21 2
v -20 21 1
v -20 23 1
v -20 23 -0
v -20 24 -0
v -20 24 -1
v -20 25 -1
v -20 25 -2
v -20 26 -2
v -20 26 -5
v 20 0 5
v 20 0 -5
v 20 10 5
v 20 10 4
v 20 14 4
v 20 14 3
v 20 18 3
v 20 18 2
v 20 21 2
v 20 21 1
v 20 23 1
v 20 23 -0
v 20 24 -0
v 20 24 -1
v 20 25 -1
v 20 25 -2
v 20 26 -2
v 20 26 -5
v -20 0 5
v -20 10 5
v -18 0 5
v -18 10 5
v -14 0 5
v -14 10 5
v -10 0 5
v -10 10 5
v -6 0 5
v -6 10 5
v -2 0 5
v -2 10 5
v 2 0 5
v 2 10 5
v 6 0 5
v 6 10 5
v 10 0 5
v 10 10 5
v 14 0 5
v 14 10 5
v 18 0 5
v 18 10 5
v 20 0 5
v 20 10 5
v -20 10 4
v -20 14 4
v -18 10 4
v -18 14 4
v -14 10 4
v -14 14 4
v -10 10 4
v -10 14 4
v -6 10 4
v -6 14 4
v -2 10 4
v -2 14 4
v 2 10 4
v 2 14 4
v 6 10 4
v 6 14 4
v 10 10 4
v 10 14 4
v 14 10 4
v 14 14 4
v 18 10 4
v 18 14 4
v 20 10 4
v 20 14 4
v -20 14 3
v -20 18 3
v -18 14 3
v -18 18 3
v -14 14 3
v -14 18 3
v -10 14 3
v -10 18 3
v -6 14 3
v -6 18 3
v -2 14 3
v -2 18 3
v 2 14 3
v 2 18 3
v 6 14 3
v 6 18 3
v 10 14 3
v 10 18 3
v 14 14 3
v 14 18 3
v 18 14 3
v 18 18 3
v 20 14 3
v 20 18 3
v -20 18 2
v -20 21 2
v -18 18 2
v -18 21 2
v -14 18 2
v -14 21 2
v -10 18 2
v -10 21 2
v -6 18 2
v -6 21 2
v -2 18 2
v -2 21 2
v 2 18 2
v 2 21 2
v 6 18 2
v 6 21 2
v 10 18 2
v 10 21 2
v 14 18 2
v 14 21 2
v 18 18 2
v 18 21 2
v 20 18 2
v 20 21 2
v -20 21 1
v -20 23 1
v -18 21 1
v -18 23 1
v -14 21 1
v -14 23 1
v -10 21 1
v -10 23 1
v -6 21 1
v -6 23 1
v -2 21 1
v -2 23 1
v 2 21 1
v 2 23 1
v 6 21 1
v 6 23 1
v 10 21 1
v 10 23 1
v 14 21 1
v 14 23 1
v 18 21 1
v 18 23 1
v 20 21 1
v 20 23 1
v -20 23 -0
v -20 24 -0
v -18 23 -0
v -18 24 -0
v -14 23 -0
v -14 24 -0
v -10 23 -0
v -10 24 -0
v -6 23 -0
v -6 24 -0
v -2 23 -0
v -2 24 -0
v 2 23 -0
v 2 24 -0
v 6 23 -0
v 6 24 -0
v 10 23 -0
v 10 24 -0
v 14 23 -0
v 14 24 -0
v 18 23 -0
v 18 24 -0
v 20 23 -0
v 20 24 -0
v -20 24 -1
v -20 25 -1
v -18 24 -1
v -18 25 -1
v -14 24 -1
v -14 25 -1
v -10 24 -1
v -10 25 -1
v -6 24 -1
v -6 25 -1
v -2 24 -1
v -2 25 -1
v 2 24 -1
v 2 25 -1
v 6 24 -1
v 6 25 -1
v 10 24 -1
v 10 25 -1
v 14 24 -1
v 14 25 -1
v 18 24 -1
v 18 25 -1
v 20 24 -1
v 20 25 -1
v -20 25 -2
v -20 26 -2
v -18 25 -2
v -18 26 -2
v -14 25 -2
v -14 26 -2
v -10 25 -2
v -10 26 -2
v -6 25 -2
v -6 26 -2
v -2 25 -2
v -2 26 -2
v 2 25 -2
v 2 26 -2
v 6 25 -2
v 6 26 -2
v 10 25 -2
v 10 26 -2
v 14 25 -2
v 14 26 -2
v 18 25 -2
v 18 26 -2
v 20 25 -2
v 20 26 -2
v -20 0 -5
v -20 26 -5
v 20 0 -5
v 20 26 -5
v -20 0 5
v -18 0 5
v -14 0 5
v -10 0 5
v -6 0 5
v -2 0 5
v 2 0 5
v 6 0 5
v 10 0 5
v 14 0 5
v 18 0 5
v 20 0 5
v -18 0 -4
v -14 0 -4
v -10 0 -4
v -6 0 -4
v -2 0 -4
v 2 0 -4
v 6 0 -4
v 10 0 -4
v 14 0 -4
v 18 0 -4
v -20 0 -5
v 20 0 -5
v -20 10 5
v -18 10 5
v -14 10 5
v -10 10 5
v -6 10 5
v -2 10 5
v 2 10 5
v 6 10 5
v 10 10 5
v 14 10 5
v 18 10 5
v 20 10 5
v -20 10 4
v -18 10 4
v -14 10 4
v -10 10 4
v -6 10 4
v -2 10 4
v 2 10 4
v 6 10 4
v 10 10 4
v 14 10 4
v 18 10 4
v 20 10 4
v -20 14 4
v -18 14 4
v -14 14 4
v -10 14 4
v -6 14 4
v -2 14 4
v 2 14 4
v 6 14 4
v 10 14 4
v 14 14 4
v 18 14 4
v 20 14 4
v -20 14 3
v -18 14 3
v -14 14 3
v -10 14 3
v -6 14 3
v -2 14 3
v 2 14 3
v 6 14 3
v 10 14 3
v 14 14 3
v 18 14 3
v 20 14 3
v -20 18 3
v -18 18 3
v -14 18 3
v -10 18 3
v -6 18 3
v -2 18 3
v 2 18 3
v 6 18 3
v 10 18 3
v 14 18 3
v 18 18 3
v 20 18 3
v -20 18 2
v -18 18 2
v -14 18 2
v -10 18 2
v -6 18 2
v -2 18 2
v 2 18 2
v 6 18 2
v 10 18 2
v 14 18 2
v 18 18 2
v 20 18 2
v -20 21 2
v -18 21 2
v -14 21 2
v -10 21 2
v -6 21 2
v -2 21 2
v 2 21 2
v 6 21 2
v 10 21 2
v 14 21 2
v 18 21 2
v 20 21 2
v -20 21 1
v -18 21 1
v -14 21 1
v -10 21 1
v -6 21 1
v -2 21 1
v 2 21 1
v 6 21 1
v 10 21 1
v 14 21 1
v 18 21 1
v 20 21 1
v -20 23 1
v -18 23 1
v -14 23 1
v -10 23 1
v -6 23 1
v -2 23 1
v 2 23 1
v 6 23 1
v 10 23 1
v 14 23 1
v 18 23 1
v 20 23 1
v -20 23 -0
v -18 23 -0
v -14 23 -0
v -10 23 -0
v -6 23 -0
v -2 23 -0
v 2 23 -0
v 6 23 -0
v 10 23 -0
v 14 23 -0
v 18 23 -0
v 20 23 -0
v -20 24 -0
v -18 24 -0
v -14 24 -0
v -10 24 -0
v -6 24 -0
v -2 24 -0
v 2 24 -0
v 6 24 -0
v 10 24 -0
v 14 24 -0
v 18 24 -0
v 20 24 -0
v -20 24 -1
v -18 24 -1
v -14 24 -1
v -10 24 -1
v -6 24 -1
v -2 24 -1
v 2 24 -1
v 6 24 -1
v 10 24 -1
v 14 24 -1
v 18 24 -1
v 20 24 -1
v -20 25 -1
v -18 25 -1
v -14 25 -1
v -10 25 -1
v -6 25 -1
v -2 25 -1
v 2 25 -1
v 6 25 -1
v 10 25 -1
v 14 25 -1
v 18 25 -1
v 20 25 -1
v -20 25 -2
v -18 25 -2
v -14 25 -2
v -10 25 -2
v -6 25 -2
v -2 25 -2
v 2 25 -2
v 6 25 -2
v 10 25 -2
v 14 25 -2
v 18 25 -2
v 20 25 -2
v -20 26 -2
v -18 26 -2
v -14 26 -2
v -10 26 -2
v -6 26 -2
v -2 26 -2
v 2 26 -2
v 6 26 -2
v 10 26 -2
v 14 26 -2
v 18 26 -2
v 20 26 -2
v -18 26 -4
v -14 26 -4
v -10 26 -4
v -6 26 -4
v -2 26 -4
v 2 26 -4
v 6 26 -4
v 10 26 -4
v 14 26 -4
v 18 26 -4
v -20 26 -5
v 20 26 -5

# faces
f 3/2/1 2/2/1 1/2/1
f 4/2/1 2/2/1 3/2/1
f 5/2/1 2/2/1 4/2/1
f 6/2/1 2/2/1 5/2/1
f 7/2/1 2/2/1 6/2/1
f 8/2/1 2/2/1 7/2/1
f 9/2/1 2/2/1 8/2/1
f 10/2/1 2/2/1 9/2/1
f 11/2/1 2/2/1 10/2/1
f 12/2/1 2/2/1 11/2/1
f 13/2/1 2/2/1 12/2/1
f 14/2/1 2/2/1 13/2/1
f 15/2/1 2/2/1 14/2/1
f 16/2/1 2/2/1 15/2/1
f 17/2/1 2/2/1 16/2/1
f 18/2/1 2/2/1 17/2/1
f 19/2/2 20/2/2 21/2/2
f 21/2/2 20/2/2 22/2/2
f 22/2/2 20/2/2 23/2/2
f 23/2/2 20/2/2 24/2/2
f 24/2/2 20/2/2 25/2/2
f 25/2/2 20/2/2 26/2/2
f 26/2/2 20/2/2 27/2/2
f 27/2/2 20/2/2 28/2/2
f 28/2/2 20/2/2 29/2/2
f 29/2/2 20/2/2 30/2/2
f 30/2/2 20/2/2 31/2/2
f 31/2/2 20/2/2 32/2/2
f 32/2/2 20/2/2 33/2/2
f 33/2/2 20/2/2 34/2/2
f 34/2/2 20/2/2 35/2/2
f 35/2/2 20/2/2 36/2/2
f 39/2/3 38/2/3 37/2/3
f 40/2/3 38/2/3 39/2/3
f 41/1/3 40/1/3 39/1/3
f 42/1/3 40/1/3 41/1/3
f 43/2/3 42/2/3 41/2/3
f 44/2/3 42/2/3 43/2/3
f 45/1/3 44/1/3 43/1/3
f 46/1/3 44/1/3 45/1/3
f 47/2/3 46/2/3 45/2/3
f 48/2/3 46/2/3 47/2/3
f 49/1/3 48/1/3 47/1/3
f 50/1/3 48/1/3 49/1/3
f 51/2/3 50/2/3 49/2/3
f 52/2/3 50/2/3 51/2/3
f 53/1/3 52/1/3 51/1/3
f 54/1/3 52/1/3 53/1/3
f 55/2/3 54/2/3 53/2/3
f 56/2/3 54/2/3 55/2/3
f 57/1/3 56/1/3 55/1/3
f 58/1/3 56/1/3 57/1/3
f 59/2/3 58/2/3 57/2/3
f 60/2/3 58/2/3 59/2/3
f 63/2/3 62/2/3 61/2/3
f 64/2/3 62/2/3 63/2/3
f 65/1/3 64/1/3 63/1/3
f 66/1/3 64/1/3 65/1/3
f 67/2/3 66/2/3 65/2/3
f 68/2/3 66/2/3 67/2/3
f 69/1/3 68/1/3 67/1/3
f 70/1/3 68/1/3 69/1/3
f 71/2/3 70/2/3 69/2/3
f 72/2/3 70/2/3 71/2/3
f 73/1/3 72/1/3 71/1/3
f 74/1/3 72/1/3 73/1/3
f 75/2/3 74/2/3 73/2/3
f 76/2/3 74/2/3 75/2/3
f 77/1/3 76/1/3 75/1/3
f 78/1/3 76/1/3 77/1/3
f 79/2/3 78/2/3 77/2/3
f 80/2/3 78/2/3 79/2/3
f 81/1/3 80/1/3 79/1/3
f 82/1/3 80/1/3 81/1/3
f 83/2/3 82/2/3 81/2/3
f 84/2/3 82/2/3 83/2/3
f 87/2/3 86/2/3 85/2/3
f 88/2/3 86/2/3 87/2/3
f 89/1/3 88/1/3 87/1/3
f 90/1/3 88/1/3 89/1/3
f 91/2/3 90/2/3 89/2/3
f 92/2/3 90/2/3 91/2/3
f 93/1/3 92/1/3 91/1/3
f 94/1/3 92/1/3 93/1/3
f 95/2/3 94/2/3 93/2/3
f 96/2/3 94/2/3 95/2/3
f 97/1/3 96/1/3 95/1/3
f 98/1/3 96/1/3 97/1/3
f 99/2/3 98/2/3 97/2/3
f 100/2/3 98/2/3 99/2/3
f 101/1/3 100/1/3 99/1/3
f 102/1/3 100/1/3 101/1/3
f 103/2/3 102/2/3 101/2/3
f 104/2/3 102/2/3 103/2/3
f 105/1/3 104/1/3 103/1/3
f 106/1/3 104/1/3 105/1/3
f 107/2/3 106/2/3 105/2/3
f 108/2/3 106/2/3 107/2/3
f 111/2/3 110/2/3 109/2/3
f 112/2/3 110/2/3 111/2/3
f 113/1/3 112/1/3 111/1/3
f 114/1/3 112/1/3 113/1/3
f 115/2/3 114/2/3 113/2/3
f 116/2/3 114/2/3 115/2/3
f 117/1/3 116/1/3 115/1/3
f 118/1/3 116/1/3 117/1/3
f 119/2/3 118/2/3 117/2/3
f 120/2/3 118/2/3 119/2/3
f 121/1/3 120/1/3 119/1/3
f 122/1/3 120/1/3 121/1/3
f 123/2/3 122/2/3 121/2/3
f 124/2/3 122/2/3 123/2/3
f 125/1/3 124/1/3 123/1/3
f 126/1/3 124/1/3 125/1/3
f 127/2/3 126/2/3 125/2/3
f 128/2/3 126/2/3 127/2/3
f 129/1/3 128/1/3 127/1/3
f 130/1/3 128/1/3 129/1/3
f 131/2/3 130/2/3 129/2/3
f 132/2/3 130/2/3 131/2/3
f 135/2/3 134/2/3 133/2/3
f 136/2/3 134/2/3 135/2/3
f 137/1/3 136/1/3 135/1/3
f 138/1/3 136/1/3 137/1/3
f 139/2/3 138/2/3 137/2/3
f 140/2/3 138/2/3 139/2/3
f 141/1/3 140/1/3 139/1/3
f 142/1/3 140/1/3 141/1/3
f 143/2/3 142/2/3 141/2/3
f 144/2/3 142/2/3 143/2/3
f 145/1/3 144/1/3 143/1/3
f 146/1/3 144/1/3 145/1/3
f 147/2/3 146/2/3 145/2/3
f 148/2/3 146/2/3 147/2/3
f 149/1/3 148/1/3 147/1/3
f 150/1/3 148/1/3 149/1/3
f 151/2/3 150/2/3 149/2/3
f 152/2/3 150/2/3 151/2/3
f 153/1/3 152/1/3 151/1/3
f 154/1/3 152/1/3 153/1/3
f 155/2/3 154/2/3 153/2/3
f 156/2/3 154/2/3 155/2/3
f 159/2/3 158/2/3 157/2/3
f 160/2/3 158/2/3 159/2/3
f 161/1/3 160/1/3 159/1/3
f 162/1/3 160/1/3 161/1/3
f 163/2/3 162/2/3 161/2/3
f 164/2/3 162/2/3 163/2/3
f 165/1/3 164/1/3 163/1/3
f 166/1/3 164/1/3 165/1/3
f 167/2/3 166/2/3 165/2/3
f 168/2/3 166/2/3 167/2/3
f 169/1/3 168/1/3 167/1/3
f 170/1/3 168/1/3 169/1/3
f 171/2/3 170/2/3 169/2/3
f 172/2/3 170/2/3 171/2/3
f 173/1/3 172/1/3 171/1/3
f 174/1/3 172/1/3 173/1/3
f 175/2/3 174/2/3 173/2/3
f 176/2/3 174/2/3 175/2/3
f 177/1/3 176/1/3 175/1/3
f 178/1/3 176/1/3 177/1/3
f 179/2/3 178/2/3 177/2/3
f 180/2/3 178/2/3 179/2/3
f 183/2/3 182/2/3 181/2/3
f 184/2/3 182/2/3 183/2/3
f 185/1/3 184/1/3 183/1/3
f 186/1/3 184/1/3 185/1/3
f 187/2/3 186/2/3 185/2/3
f 188/2/3 186/2/3 187/2/3
f 189/1/3 188/1/3 187/1/3
f 190/1/3 188/1/3 189/1/3
f 191/2/3 190/2/3 189/2/3
f 192/2/3 190/2/3 191/2/3
f 193/1/3 192/1/3 191/1/3
f 194/1/3 192/1/3 193/1/3
f 195/2/3 194/2/3 193/2/3
f 196/2/3 194/2/3 195/2/3
f 197/1/3 196/1/3 195/1/3
f 198/1/3 196/1/3 197/1/3
f 199/2/3 198/2/3 197/2/3
f 200/2/3 198/2/3 199/2/3
f 201/1/3 200/1/3 199/1/3
f 202/1/3 200/1/3 201/1/3
f 203/2/3 202/2/3 201/2/3
f 204/2/3 202/2/3 203/2/3
f 207/2/3 206/2/3 205/2/3
f 208/2/3 206/2/3 207/2/3
f 209/1/3 208/1/3 207/1/3
f 210/1/3 208/1/3 209/1/3
f 211/2/3 210/2/3 209/2/3
f 212/2/3 210/2/3 211/2/3
f 213/1/3 212/1/3 211/1/3
f 214/1/3 212/1/3 213/1/3
f 215/2/3 214/2/3 213/2/3
f 216/2/3 214/2/3 215/2/3
f 217/1/3 216/1/3 215/1/3
f 218/1/3 216/1/3 217/1/3
f 219/2/3 218/2/3 217/2/3
f 220/2/3 218/2/3 219/2/3
f 221/1/3 220/1/3 219/1/3
f 222/1/3 220/1/3 221/1/3
f 223/2/3 222/2/3 221/2/3
f 224/2/3 222/2/3 223/2/3
f 225/1/3 224/1/3 223/1/3
f 226/1/3 224/1/3 225/1/3
f 227/2/3 226/2/3 225/2/3
f 228/2/3 226/2/3 227/2/3
f 229/2/4 230/2/4 231/2/4
f 231/2/4 230/2/4 232/2/4
f 245/2/5 234/2/5 233/2/5
f 245/1/5 235/1/5 234/1/5
f 246/2/5 236/2/5 235/2/5
f 246/1/5 235/1/5 245/1/5
f 247/1/5 237/1/5 236/1/5
f 247/2/5 236/2/5 246/2/5
f 248/2/5 238/2/5 237/2/5
f 248/1/5 237/1/5 247/1/5
f 249/1/5 239/1/5 238/1/5
f 249/2/5 238/2/5 248/2/5
f 250/2/5 240/2/5 239/2/5
f 250/1/5 239/1/5 249/1/5
f 251/1/5 241/1/5 240/1/5
f 251/2/5 240/2/5 250/2/5
f 252/2/5 242/2/5 241/2/5
f 252/1/5 241/1/5 251/1/5
f 253/1/5 243/1/5 242/1/5
f 253/2/5 242/2/5 252/2/5
f 254/2/5 244/2/5 243/2/5
f 254/1/5 243/1/5 253/1/5
f 255/2/5 253/2/5 252/2/5
f 255/2/5 252/2/5 251/2/5
f 255/2/5 254/2/5 253/2/5
f 255/2/5 251/2/5 250/2/5
f 255/2/5 250/2/5 249/2/5
f 255/2/5 249/2/5 248/2/5
f 255/2/5 248/2/5 247/2/5
f 255/2/5 247/2/5 246/2/5
f 255/2/5 246/2/5 245/2/5
f 255/2/5 245/2/5 233/2/5
f 256/2/5 244/2/5 254/2/5
f 256/2/5 254/2/5 255/2/5
f 257/2/6 258/2/6 269/2/6
f 258/1/6 259/1/6 270/1/6
f 269/2/6 258/2/6 270/2/6
f 259/2/6 260/2/6 271/2/6
f 270/1/6 259/1/6 271/1/6
f 260/1/6 261/1/6 272/1/6
f 271/2/6 260/2/6 272/2/6
f 261/2/6 262/2/6 273/2/6
f 272/1/6 261/1/6 273/1/6
f 262/1/6 263/1/6 274/1/6
f 273/2/6 262/2/6 274/2/6
f 263/2/6 264/2/6 275/2/6
f 274/1/6 263/1/6 275/1/6
f 264/1/6 265/1/6 276/1/6
f 275/2/6 264/2/6 276/2/6
f 265/2/6 266/2/6 277/2/6
f 276/1/6 265/1/6 277/1/6
f 266/1/6 267/1/6 278/1/6
f 277/2/6 266/2/6 278/2/6
f 267/2/6 268/2/6 279/2/6
f 278/1/6 267/1/6 279/1/6
f 279/2/6 268/2/6 280/2/6
f 281/2/6 282/2/6 293/2/6
f 282/1/6 283/1/6 294/1/6
f 293/2/6 282/2/6 294/2/6
f 283/2/6 284/2/6 295/2/6
f 294/1/6 283/1/6 295/1/6
f 284/1/6 285/1/6 296/1/6
f 295/2/6 284/2/6 296/2/6
f 285/2/6 286/2/6 297/2/6
f 296/1/6 285/1/6 297/1/6
f 286/1/6 287/1/6 298/1/6
f 297/2/6 286/2/6 298/2/6
f 287/2/6 288/2/6 299/2/6
f 298/1/6 287/1/6 299/1/6
f 288/1/6 289/1/6 300/1/6
f 299/2/6 288/2/6 300/2/6
f 289/2/6 290/2/6 301/2/6
f 300/1/6 289/1/6 301/1/6
f 290/1/6 291/1/6 302/1/6
f 301/2/6 290/2/6 302/2/6
f 291/2/6 292/2/6 303/2/6
f 302/1/6 291/1/6 303/1/6
f 303/2/6 292/2/6 304/2/6
f 305/2/6 306/2/6 317/2/6
f 306/1/6 307/1/6 318/1/6
f 317/2/6 306/2/6 318/2/6
f 307/2/6 308/2/6 319/2/6
f 318/1/6 307/1/6 319/1/6
f 308/1/6 309/1/6 320/1/6
f 319/2/6 308/2/6 320/2/6
f 309/2/6 310/2/6 321/2/6
f 320/1/6 309/1/6 321/1/6
f 310/1/6 311/1/6 322/1/6
f 321/2/6 310/2/6 322/2/6
f 311/2/6 312/2/6 323/2/6
f 322/1/6 311/1/6 323/1/6
f 312/1/6 313/1/6 324/1/6
f 323/2/6 312/2/6 324/2/6
f 313/2/6 314/2/6 325/2/6
f 324/1/6 313/1/6 325/1/6
f 314/1/6 315/1/6 326/1/6
f 325/2/6 314/2/6 326/2/6
f 315/2/6 316/2/6 327/2/6
f 326/1/6 315/1/6 327/1/6
f 327/2/6 316/2/6 328/2/6
f 329/2/6 330/2/6 341/2/6
f 330/1/6 331/1/6 342/1/6
f 341/2/6 330/2/6 342/2/6
f 331/2/6 332/2/6 343/2/6
f 342/1/6 331/1/6 343/1/6
f 332/1/6 333/1/6 344/1/6
f 343/2/6 332/2/6 344/2/6
f 333/2/6 334/2/6 345/2/6
f 344/1/6 333/1/6 345/1/6
f 334/1/6 335/1/6 346/1/6
f 345/2/6 334/2/6 346/2/6
f 335/2/6 336/2/6 347/2/6
f 346/1/6 335/1/6 347/1/6
f 336/1/6 337/1/6 348/1/6
f 347/2/6 336/2/6 348/2/6
f 337/2/6 338/2/6 349/2/6
f 348/1/6 337/1/6 349/1/6
f 338/1/6 339/1/6 350/1/6
f 349/2/6 338/2/6 350/2/6
f 339/2/6 340/2/6 351/2/6
f 350/1/6 339/1/6 351/1/6
f 351/2/6 340/2/6 352/2/6
f 353/2/6 354/2/6 365/2/6
f 354/1/6 355/1/6 366/1/6
f 365/2/6 354/2/6 366/2/6
f 355/2/6 356/2/6 367/2/6
f 366/1/6 355/1/6 367/1/6
f 356/1/6 357/1/6 368/1/6
f 367/2/6 356/2/6 368/2/6
f 357/2/6 358/2/6 369/2/6
f 368/1/6 357/1/6 369/1/6
f 358/1/6 359/1/6 370/1/6
f 369/2/6 358/2/6 370/2/6
f 359/2/6 360/2/6 371/2/6
f 370/1/6 359/1/6 371/1/6
f 360/1/6 361/1/6 372/1/6
f 371/2/6 360/2/6 372/2/6
f 361/2/6 362/2/6 373/2/6
f 372/1/6 361/1/6 373/1/6
f 362/1/6 363/1/6 374/1/6
f 373/2/6 362/2/6 374/2/6
f 363/2/6 364/2/6 375/2/6
f 374/1/6 363/1/6 375/1/6
f 375/2/6 364/2/6 376/2/6
f 377/2/6 378/2/6 389/2/6
f 378/1/6 379/1/6 390/1/6
f 389/2/6 378/2/6 390/2/6
f 379/2/6 380/2/6 391/2/6
f 390/1/6 379/1/6 391/1/6
f 380/1/6 381/1/6 392/1/6
f 391/2/6 380/2/6 392/2/6
f 381/2/6 382/2/6 393/2/6
f 392/1/6 381/1/6 393/1/6
f 382/1/6 383/1/6 394/1/6
f 393/2/6 382/2/6 394/2/6
f 383/2/6 384/2/6 395/2/6
f 394/1/6 383/1/6 395/1/6
f 384/1/6 385/1/6 396/1/6
f 395/2/6 384/2/6 396/2/6
f 385/2/6 386/2/6 397/2/6
f 396/1/6 385/1/6 397/1/6
f 386/1/6 387/1/6 398/1/6
f 397/2/6 386/2/6 398/2/6
f 387/2/6 388/2/6 399/2/6
f 398/1/6 387/1/6 399/1/6
f 399/2/6 388/2/6 400/2/6
f 401/2/6 402/2/6 413/2/6
f 402/1/6 403/1/6 414/1/6
f 413/2/6 402/2/6 414/2/6
f 403/2/6 404/2/6 415/2/6
f 414/1/6 403/1/6 415/1/6
f 404/1/6 405/1/6 416/1/6
f 415/2/6 404/2/6 416/2/6
f 405/2/6 406/2/6 417/2/6
f 416/1/6 405/1/6 417/1/6
f 406/1/6 407/1/6 418/1/6
f 417/2/6 406/2/6 418/2/6
f 407/2/6 408/2/6 419/2/6
f 418/1/6 407/1/6 419/1/6
f 408/1/6 409/1/6 420/1/6
f 419/2/6 408/2/6 420/2/6
f 409/2/6 410/2/6 421/2/6
f 420/1/6 409/1/6 421/1/6
f 410/1/6 411/1/6 422/1/6
f 421/2/6 410/2/6 422/2/6
f 411/2/6 412/2/6 423/2/6
f 422/1/6 411/1/6 423/1/6
f 423/2/6 412/2/6 424/2/6
f 425/2/6 426/2/6 437/2/6
f 426/1/6 427/1/6 437/1/6
f 427/2/6 428/2/6 438/2/6
f 437/1/6 427/1/6 438/1/6
f 428/1/6 429/1/6 439/1/6
f 438/2/6 428/2/6 439/2/6
f 429/2/6 430/2/6 440/2/6
f 439/1/6 429/1/6 440/1/6
f 430/1/6 431/1/6 441/1/6
f 440/2/6 430/2/6 441/2/6
f 431/2/6 432/2/6 442/2/6
f 441/1/6 431/1/6 442/1/6
f 432/1/6 433/1/6 443/1/6
f 442/2/6 432/2/6 443/2/6
f 433/2/6 434/2/6 444/2/6
f 443/1/6 433/1/6 444/1/6
f 434/1/6 435/1/6 445/1/6
f 444/2/6 434/2/6 445/2/6
f 435/2/6 436/2/6 446/2/6
f 445/1/6 435/1/6 446/1/6
f 444/2/6 445/2/6 447/2/6
f 443/2/6 444/2/6 447/2/6
f 445/2/6 446/2/6 447/2/6
f 442/2/6 443/2/6 447/2/6
f 441/2/6 442/2/6 447/2/6
f 440/2/6 441/2/6 447/2/6
f 439/2/6 440/2/6 447/2/6
f 438/2/6 439/2/6 447/2/6
f 437/2/6 438/2/6 447/2/6
f 425/2/6 437/2/6 447/2/6
f 446/2/6 436/2/6 448/2/6
f 447/2/6 446/2/6 448/2/6
