# MagicaVoxel @ Ephtracy

# group
g wall_rot

# material
mtllib wall_rot.mtl
usemtl palette

# normals
vn -1 0 0
vn 1 0 0
vn 0 0 1
vn 0 0 -1
vn 0 -1 0
vn 0 1 0

# texcoords
vt 0.591797 0.5
vt 0.990234 0.5

# verts
v -20 0 5
v -20 0 -5
v -20 10 5
v -20 10 4
v -20 14 4
v -20 14 3
v -20 18 3
v -20 18 2
v -20 21 2
v -20 21 1
v -20 23 1
v -20 23 -0
v -20 24 -0
v -20 24 -1
v -20 25 -1
v -20 25 -2
v -20 26 -2
v -20 26 -5
v -5 0 -5
v -5 0 -20
v -5 26 -5
v -5 26 -20
v -2 25 -2
v -2 25 -6
v -2 25 -10
v -2 25 -14
v -2 25 -18
v -2 25 -20
v -2 26 -2
v -2 26 -6
v -2 26 -10
v -2 26 -14
v -2 26 -18
v -2 26 -20
v -1 24 -1
v -1 24 -2
v -1 24 -6
v -1 24 -10
v -1 24 -14
v -1 24 -18
v -1 24 -20
v -1 25 -1
v -1 25 -2
v -1 25 -6
v -1 25 -10
v -1 25 -14
v -1 25 -18
v -1 25 -20
v 0 23 -0
v 0 23 -2
v 0 23 -6
v 0 23 -10
v 0 23 -14
v 0 23 -18
v 0 23 -20
v 0 24 -0
v 0 24 -2
v 0 24 -6
v 0 24 -10
v 0 24 -14
v 0 24 -18
v 0 24 -20
v 1 18 2
v 1 18 1
v 1 21 2
v 1 21 1
v 1 21 -2
v 1 21 -6
v 1 21 -10
v 1 21 -14
v 1 21 -18
v 1 21 -20
v 1 23 1
v 1 23 -2
v 1 23 -6
v 1 23 -10
v 1 23 -14
v 1 23 -18
v 1 23 -20
v 2 0 5
v 2 0 4
v 2 10 5
v 2 10 4
v 2 10 3
v 2 14 4
v 2 14 3
v 2 14 2
v 2 18 3
v 2 18 2
v 2 18 1
v 2 18 -2
v 2 18 -6
v 2 18 -10
v 2 18 -14
v 2 18 -18
v 2 18 -20
v 2 21 1
v 2 21 -2
v 2 21 -6
v 2 21 -10
v 2 21 -14
v 2 21 -18
v 2 21 -20
v 3 0 4
v 3 0 3
v 3 10 4
v 3 10 3
v 3 10 2
v 3 14 3
v 3 14 2
v 3 14 -2
v 3 14 -6
v 3 14 -10
v 3 14 -14
v 3 14 -18
v 3 14 -20
v 3 18 2
v 3 18 -2
v 3 18 -6
v 3 18 -10
v 3 18 -14
v 3 18 -18
v 3 18 -20
v 4 0 3
v 4 0 2
v 4 10 3
v 4 10 2
v 4 10 -2
v 4 10 -6
v 4 10 -10
v 4 10 -14
v 4 10 -18
v 4 10 -20
v 4 14 2
v 4 14 -2
v 4 14 -6
v 4 14 -10
v 4 14 -14
v 4 14 -18
v 4 14 -20
v 5 0 2
v 5 0 -2
v 5 0 -6
v 5 0 -10
v 5 0 -14
v 5 0 -18
v 5 0 -20
v 5 10 2
v 5 10 -2
v 5 10 -6
v 5 10 -10
v 5 10 -14
v 5 10 -18
v 5 10 -20
v -20 0 5
v -20 10 5
v -18 0 5
v -18 10 5
v -14 0 5
v -14 10 5
v -10 0 5
v -10 10 5
v -6 0 5
v -6 10 5
v -2 0 5
v -2 10 5
v 2 0 5
v 2 10 5
v -20 10 4
v -20 14 4
v -18 10 4
v -18 14 4
v -14 10 4
v -14 14 4
v -10 10 4
v -10 14 4
v -6 10 4
v -6 14 4
v -2 10 4
v -2 14 4
v 2 0 4
v 2 10 4
v 2 14 4
v 3 0 4
v 3 10 4
v -20 14 3
v -20 18 3
v -18 14 3
v -18 18 3
v -14 14 3
v -14 18 3
v -10 14 3
v -10 18 3
v -6 14 3
v -6 18 3
v -2 14 3
v -2 18 3
v 2 10 3
v 2 14 3
v 2 18 3
v 3 0 3
v 3 10 3
v 3 14 3
v 4 0 3
v 4 10 3
v -20 18 2
v -20 21 2
v -18 18 2
v -18 21 2
v -14 18 2
v -14 21 2
v -10 18 2
v -10 21 2
v -6 18 2
v -6 21 2
v -2 18 2
v -2 21 2
v 1 18 2
v 1 21 2
v 2 14 2
v 2 18 2
v 3 10 2
v 3 14 2
v 3 18 2
v 4 0 2
v 4 10 2
v 4 14 2
v 5 0 2
v 5 10 2
v -20 21 1
v -20 23 1
v -18 21 1
v -18 23 1
v -14 21 1
v -14 23 1
v -10 21 1
v -10 23 1
v -6 21 1
v -6 23 1
v -2 21 1
v -2 23 1
v 1 18 1
v 1 21 1
v 1 23 1
v 2 18 1
v 2 21 1
v -20 23 -0
v -20 24 -0
v -18 23 -0
v -18 24 -0
v -14 23 -0
v -14 24 -0
v -10 23 -0
v -10 24 -0
v -6 23 -0
v -6 24 -0
v -2 23 -0
v -2 24 -0
v 0 23 -0
v 0 24 -0
v -20 24 -1
v -20 25 -1
v -18 24 -1
v -18 25 -1
v -14 24 -1
v -14 25 -1
v -10 24 -1
v -10 25 -1
v -6 24 -1
v -6 25 -1
v -2 24 -1
v -2 25 -1
v -1 24 -1
v -1 25 -1
v -20 25 -2
v -20 26 -2
v -18 25 -2
v -18 26 -2
v -14 25 -2
v -14 26 -2
v -10 25 -2
v -10 26 -2
v -6 25 -2
v -6 26 -2
v -2 25 -2
v -2 26 -2
v -20 0 -5
v -20 26 -5
v -5 0 -5
v -5 26 -5
v -5 0 -20
v -5 26 -20
v -2 25 -20
v -2 26 -20
v -1 24 -20
v -1 25 -20
v 0 23 -20
v 0 24 -20
v 1 21 -20
v 1 23 -20
v 2 18 -20
v 2 21 -20
v 3 14 -20
v 3 18 -20
v 4 10 -20
v 4 14 -20
v 5 0 -20
v 5 10 -20
v -20 0 5
v -18 0 5
v -14 0 5
v -10 0 5
v -6 0 5
v -2 0 5
v 2 0 5
v 2 0 4
v 3 0 4
v 3 0 3
v 4 0 3
v 4 0 2
v 5 0 2
v -4 0 -0
v -2 0 -0
v -4 0 -2
v 5 0 -2
v -18 0 -4
v -14 0 -4
v -10 0 -4
v -6 0 -4
v -20 0 -5
v -5 0 -5
v -4 0 -6
v 5 0 -6
v -4 0 -10
v 5 0 -10
v -4 0 -14
v 5 0 -14
v -4 0 -18
v 5 0 -18
v -5 0 -20
v 5 0 -20
v -20 10 5
v -18 10 5
v -14 10 5
v -10 10 5
v -6 10 5
v -2 10 5
v 2 10 5
v -20 10 4
v -18 10 4
v -14 10 4
v -10 10 4
v -6 10 4
v -2 10 4
v 2 10 4
v 3 10 4
v 2 10 3
v 3 10 3
v 4 10 3
v 3 10 2
v 4 10 2
v 5 10 2
v 4 10 -2
v 5 10 -2
v 4 10 -6
v 5 10 -6
v 4 10 -10
v 5 10 -10
v 4 10 -14
v 5 10 -14
v 4 10 -18
v 5 10 -18
v 4 10 -20
v 5 10 -20
v -20 14 4
v -18 14 4
v -14 14 4
v -10 14 4
v -6 14 4
v -2 14 4
v 2 14 4
v -20 14 3
v -18 14 3
v -14 14 3
v -10 14 3
v -6 14 3
v -2 14 3
v 2 14 3
v 3 14 3
v 2 14 2
v 3 14 2
v 4 14 2
v 3 14 -2
v 4 14 -2
v 3 14 -6
v 4 14 -6
v 3 14 -10
v 4 14 -10
v 3 14 -14
v 4 14 -14
v 3 14 -18
v 4 14 -18
v 3 14 -20
v 4 14 -20
v -20 18 3
v -18 18 3
v -14 18 3
v -10 18 3
v -6 18 3
v -2 18 3
v 2 18 3
v -20 18 2
v -18 18 2
v -14 18 2
v -10 18 2
v -6 18 2
v -2 18 2
v 1 18 2
v 2 18 2
v 3 18 2
v 1 18 1
v 2 18 1
v 2 18 -2
v 3 18 -2
v 2 18 -6
v 3 18 -6
v 2 18 -10
v 3 18 -10
v 2 18 -14
v 3 18 -14
v 2 18 -18
v 3 18 -18
v 2 18 -20
v 3 18 -20
v -20 21 2
v -18 21 2
v -14 21 2
v -10 21 2
v -6 21 2
v -2 21 2
v 1 21 2
v -20 21 1
v -18 21 1
v -14 21 1
v -10 21 1
v -6 21 1
v -2 21 1
v 1 21 1
v 2 21 1
v 1 21 -2
v 2 21 -2
v 1 21 -6
v 2 21 -6
v 1 21 -10
v 2 21 -10
v 1 21 -14
v 2 21 -14
v 1 21 -18
v 2 21 -18
v 1 21 -20
v 2 21 -20
v -20 23 1
v -18 23 1
v -14 23 1
v -10 23 1
v -6 23 1
v -2 23 1
v 1 23 1
v -20 23 -0
v -18 23 -0
v -14 23 -0
v -10 23 -0
v -6 23 -0
v -2 23 -0
v 0 23 -0
v 0 23 -2
v 1 23 -2
v 0 23 -6
v 1 23 -6
v 0 23 -10
v 1 23 -10
v 0 23 -14
v 1 23 -14
v 0 23 -18
v 1 23 -18
v 0 23 -20
v 1 23 -20
v -20 24 -0
v -18 24 -0
v -14 24 -0
v -10 24 -0
v -6 24 -0
v -2 24 -0
v 0 24 -0
v -20 24 -1
v -18 24 -1
v -14 24 -1
v -10 24 -1
v -6 24 -1
v -2 24 -1
v -1 24 -1
v -1 24 -2
v 0 24 -2
v -1 24 -6
v 0 24 -6
v -1 24 -10
v 0 24 -10
v -1 24 -14
v 0 24 -14
v -1 24 -18
v 0 24 -18
v -1 24 -20
v 0 24 -20
v -20 25 -1
v -18 25 -1
v -14 25 -1
v -10 25 -1
v -6 25 -1
v -2 25 -1
v -1 25 -1
v -20 25 -2
v -18 25 -2
v -14 25 -2
v -10 25 -2
v -6 25 -2
v -2 25 -2
v -1 25 -2
v -2 25 -6
v -1 25 -6
v -2 25 -10
v -1 25 -10
v -2 25 -14
v -1 25 -14
v -2 25 -18
v -1 25 -18
v -2 25 -20
v -1 25 -20
v -20 26 -2
v -18 26 -2
v -14 26 -2
v -10 26 -2
v -6 26 -2
v -2 26 -2
v -18 26 -4
v -14 26 -4
v -10 26 -4
v -6 26 -4
v -20 26 -5
v -5 26 -5
v -4 26 -6
v -2 26 -6
v -4 26 -10
v -2 26 -10
v -4 26 -14
v -2 26 -14
v -4 26 -18
v -2 26 -18
v -5 26 -20
v -2 26 -20

# faces
f 3/2/1 2/2/1 1/2/1
f 4/2/1 2/2/1 3/2/1
f 5/2/1 2/2/1 4/2/1
f 6/2/1 2/2/1 5/2/1
f 7/2/1 2/2/1 6/2/1
f 8/2/1 2/2/1 7/2/1
f 9/2/1 2/2/1 8/2/1
f 10/2/1 2/2/1 9/2/1
f 11/2/1 2/2/1 10/2/1
f 12/2/1 2/2/1 11/2/1
f 13/2/1 2/2/1 12/2/1
f 14/2/1 2/2/1 13/2/1
f 15/2/1 2/2/1 14/2/1
f 16/2/1 2/2/1 15/2/1
f 17/2/1 2/2/1 16/2/1
f 18/2/1 2/2/1 17/2/1
f 21/2/1 20/2/1 19/2/1
f 22/2/1 20/2/1 21/2/1
f 23/2/2 24/2/2 29/2/2
f 24/1/2 25/1/2 30/1/2
f 29/2/2 24/2/2 30/2/2
f 25/2/2 26/2/2 31/2/2
f 30/1/2 25/1/2 31/1/2
f 26/1/2 27/1/2 32/1/2
f 31/2/2 26/2/2 32/2/2
f 27/2/2 28/2/2 33/2/2
f 32/1/2 27/1/2 33/1/2
f 33/2/2 28/2/2 34/2/2
f 35/1/2 36/1/2 42/1/2
f 36/2/2 37/2/2 43/2/2
f 42/1/2 36/1/2 43/1/2
f 37/1/2 38/1/2 44/1/2
f 43/2/2 37/2/2 44/2/2
f 38/2/2 39/2/2 45/2/2
f 44/1/2 38/1/2 45/1/2
f 39/1/2 40/1/2 46/1/2
f 45/2/2 39/2/2 46/2/2
f 40/2/2 41/2/2 47/2/2
f 46/1/2 40/1/2 47/1/2
f 47/2/2 41/2/2 48/2/2
f 49/1/2 50/1/2 56/1/2
f 50/2/2 51/2/2 57/2/2
f 56/1/2 50/1/2 57/1/2
f 51/1/2 52/1/2 58/1/2
f 57/2/2 51/2/2 58/2/2
f 52/2/2 53/2/2 59/2/2
f 58/1/2 52/1/2 59/1/2
f 53/1/2 54/1/2 60/1/2
f 59/2/2 53/2/2 60/2/2
f 54/2/2 55/2/2 61/2/2
f 60/1/2 54/1/2 61/1/2
f 61/2/2 55/2/2 62/2/2
f 63/1/2 64/1/2 65/1/2
f 65/1/2 64/1/2 66/1/2
f 66/1/2 67/1/2 73/1/2
f 67/2/2 68/2/2 74/2/2
f 73/1/2 67/1/2 74/1/2
f 68/1/2 69/1/2 75/1/2
f 74/2/2 68/2/2 75/2/2
f 69/2/2 70/2/2 76/2/2
f 75/1/2 69/1/2 76/1/2
f 70/1/2 71/1/2 77/1/2
f 76/2/2 70/2/2 77/2/2
f 71/2/2 72/2/2 78/2/2
f 77/1/2 71/1/2 78/1/2
f 78/2/2 72/2/2 79/2/2
f 80/1/2 81/1/2 82/1/2
f 82/1/2 81/1/2 83/1/2
f 83/1/2 84/1/2 85/1/2
f 85/1/2 84/1/2 86/1/2
f 86/1/2 87/1/2 88/1/2
f 88/1/2 87/1/2 89/1/2
f 90/1/2 91/1/2 97/1/2
f 91/2/2 92/2/2 98/2/2
f 97/1/2 91/1/2 98/1/2
f 92/1/2 93/1/2 99/1/2
f 98/2/2 92/2/2 99/2/2
f 93/2/2 94/2/2 100/2/2
f 99/1/2 93/1/2 100/1/2
f 94/1/2 95/1/2 101/1/2
f 100/2/2 94/2/2 101/2/2
f 95/2/2 96/2/2 102/2/2
f 101/1/2 95/1/2 102/1/2
f 102/2/2 96/2/2 103/2/2
f 104/1/2 105/1/2 106/1/2
f 106/1/2 105/1/2 107/1/2
f 107/1/2 108/1/2 109/1/2
f 109/1/2 108/1/2 110/1/2
f 110/1/2 111/1/2 117/1/2
f 111/2/2 112/2/2 118/2/2
f 117/1/2 111/1/2 118/1/2
f 112/1/2 113/1/2 119/1/2
f 118/2/2 112/2/2 119/2/2
f 113/2/2 114/2/2 120/2/2
f 119/1/2 113/1/2 120/1/2
f 114/1/2 115/1/2 121/1/2
f 120/2/2 114/2/2 121/2/2
f 115/2/2 116/2/2 122/2/2
f 121/1/2 115/1/2 122/1/2
f 122/2/2 116/2/2 123/2/2
f 124/1/2 125/1/2 126/1/2
f 126/1/2 125/1/2 127/1/2
f 127/1/2 128/1/2 134/1/2
f 128/2/2 129/2/2 135/2/2
f 134/1/2 128/1/2 135/1/2
f 129/1/2 130/1/2 136/1/2
f 135/2/2 129/2/2 136/2/2
f 130/2/2 131/2/2 137/2/2
f 136/1/2 130/1/2 137/1/2
f 131/1/2 132/1/2 138/1/2
f 137/2/2 131/2/2 138/2/2
f 132/2/2 133/2/2 139/2/2
f 138/1/2 132/1/2 139/1/2
f 139/2/2 133/2/2 140/2/2
f 141/1/2 142/1/2 148/1/2
f 142/2/2 143/2/2 149/2/2
f 148/1/2 142/1/2 149/1/2
f 143/1/2 144/1/2 150/1/2
f 149/2/2 143/2/2 150/2/2
f 144/2/2 145/2/2 151/2/2
f 150/1/2 144/1/2 151/1/2
f 145/1/2 146/1/2 152/1/2
f 151/2/2 145/2/2 152/2/2
f 146/2/2 147/2/2 153/2/2
f 152/1/2 146/1/2 153/1/2
f 153/2/2 147/2/2 154/2/2
f 157/2/3 156/2/3 155/2/3
f 158/2/3 156/2/3 157/2/3
f 159/1/3 158/1/3 157/1/3
f 160/1/3 158/1/3 159/1/3
f 161/2/3 160/2/3 159/2/3
f 162/2/3 160/2/3 161/2/3
f 163/1/3 162/1/3 161/1/3
f 164/1/3 162/1/3 163/1/3
f 165/2/3 164/2/3 163/2/3
f 166/2/3 164/2/3 165/2/3
f 167/1/3 166/1/3 165/1/3
f 168/1/3 166/1/3 167/1/3
f 171/2/3 170/2/3 169/2/3
f 172/2/3 170/2/3 171/2/3
f 173/1/3 172/1/3 171/1/3
f 174/1/3 172/1/3 173/1/3
f 175/2/3 174/2/3 173/2/3
f 176/2/3 174/2/3 175/2/3
f 177/1/3 176/1/3 175/1/3
f 178/1/3 176/1/3 177/1/3
f 179/2/3 178/2/3 177/2/3
f 180/2/3 178/2/3 179/2/3
f 182/1/3 180/1/3 179/1/3
f 183/1/3 180/1/3 182/1/3
f 184/1/3 182/1/3 181/1/3
f 185/1/3 182/1/3 184/1/3
f 188/2/3 187/2/3 186/2/3
f 189/2/3 187/2/3 188/2/3
f 190/1/3 189/1/3 188/1/3
f 191/1/3 189/1/3 190/1/3
f 192/2/3 191/2/3 190/2/3
f 193/2/3 191/2/3 192/2/3
f 194/1/3 193/1/3 192/1/3
f 195/1/3 193/1/3 194/1/3
f 196/2/3 195/2/3 194/2/3
f 197/2/3 195/2/3 196/2/3
f 199/1/3 197/1/3 196/1/3
f 200/1/3 197/1/3 199/1/3
f 202/1/3 199/1/3 198/1/3
f 203/1/3 199/1/3 202/1/3
f 204/1/3 202/1/3 201/1/3
f 205/1/3 202/1/3 204/1/3
f 208/2/3 207/2/3 206/2/3
f 209/2/3 207/2/3 208/2/3
f 210/1/3 209/1/3 208/1/3
f 211/1/3 209/1/3 210/1/3
f 212/2/3 211/2/3 210/2/3
f 213/2/3 211/2/3 212/2/3
f 214/1/3 213/1/3 212/1/3
f 215/1/3 213/1/3 214/1/3
f 216/2/3 215/2/3 214/2/3
f 217/2/3 215/2/3 216/2/3
f 218/1/3 217/1/3 216/1/3
f 219/1/3 217/1/3 218/1/3
f 223/1/3 221/1/3 220/1/3
f 224/1/3 221/1/3 223/1/3
f 226/1/3 223/1/3 222/1/3
f 227/1/3 223/1/3 226/1/3
f 228/1/3 226/1/3 225/1/3
f 229/1/3 226/1/3 228/1/3
f 232/2/3 231/2/3 230/2/3
f 233/2/3 231/2/3 232/2/3
f 234/1/3 233/1/3 232/1/3
f 235/1/3 233/1/3 234/1/3
f 236/2/3 235/2/3 234/2/3
f 237/2/3 235/2/3 236/2/3
f 238/1/3 237/1/3 236/1/3
f 239/1/3 237/1/3 238/1/3
f 240/2/3 239/2/3 238/2/3
f 241/2/3 239/2/3 240/2/3
f 243/1/3 241/1/3 240/1/3
f 244/1/3 241/1/3 243/1/3
f 245/1/3 243/1/3 242/1/3
f 246/1/3 243/1/3 245/1/3
f 249/2/3 248/2/3 247/2/3
f 250/2/3 248/2/3 249/2/3
f 251/1/3 250/1/3 249/1/3
f 252/1/3 250/1/3 251/1/3
f 253/2/3 252/2/3 251/2/3
f 254/2/3 252/2/3 253/2/3
f 255/1/3 254/1/3 253/1/3
f 256/1/3 254/1/3 255/1/3
f 257/2/3 256/2/3 255/2/3
f 258/2/3 256/2/3 257/2/3
f 259/1/3 258/1/3 257/1/3
f 260/1/3 258/1/3 259/1/3
f 263/2/3 262/2/3 261/2/3
f 264/2/3 262/2/3 263/2/3
f 265/1/3 264/1/3 263/1/3
f 266/1/3 264/1/3 265/1/3
f 267/2/3 266/2/3 265/2/3
f 268/2/3 266/2/3 267/2/3
f 269/1/3 268/1/3 267/1/3
f 270/1/3 268/1/3 269/1/3
f 271/2/3 270/2/3 269/2/3
f 272/2/3 270/2/3 271/2/3
f 273/1/3 272/1/3 271/1/3
f 274/1/3 272/1/3 273/1/3
f 277/2/3 276/2/3 275/2/3
f 278/2/3 276/2/3 277/2/3
f 279/1/3 278/1/3 277/1/3
f 280/1/3 278/1/3 279/1/3
f 281/2/3 280/2/3 279/2/3
f 282/2/3 280/2/3 281/2/3
f 283/1/3 282/1/3 281/1/3
f 284/1/3 282/1/3 283/1/3
f 285/2/3 284/2/3 283/2/3
f 286/2/3 284/2/3 285/2/3
f 287/2/4 288/2/4 289/2/4
f 289/2/4 288/2/4 290/2/4
f 291/2/4 292/2/4 293/2/4
f 293/2/4 292/2/4 294/2/4
f 291/2/4 293/2/4 295/2/4
f 295/2/4 293/2/4 296/2/4
f 291/2/4 295/2/4 297/2/4
f 297/2/4 295/2/4 298/2/4
f 291/2/4 297/2/4 299/2/4
f 299/2/4 297/2/4 300/2/4
f 291/2/4 299/2/4 301/2/4
f 301/2/4 299/2/4 302/2/4
f 291/2/4 301/2/4 303/2/4
f 303/2/4 301/2/4 304/2/4
f 291/2/4 303/2/4 305/2/4
f 305/2/4 303/2/4 306/2/4
f 291/2/4 305/2/4 307/2/4
f 307/2/4 305/2/4 308/2/4
f 316/1/5 315/1/5 314/1/5
f 318/1/5 317/1/5 316/1/5
f 320/1/5 319/1/5 318/1/5
f 322/2/5 314/2/5 313/2/5
f 323/1/5 321/1/5 320/1/5
f 323/2/5 314/2/5 322/2/5
f 323/1/5 316/1/5 314/1/5
f 323/1/5 320/1/5 318/1/5
f 323/1/5 318/1/5 316/1/5
f 324/2/5 322/2/5 313/2/5
f 324/1/5 323/1/5 322/1/5
f 325/1/5 321/1/5 323/1/5
f 325/1/5 323/1/5 324/1/5
f 326/2/5 310/2/5 309/2/5
f 326/1/5 311/1/5 310/1/5
f 327/2/5 312/2/5 311/2/5
f 327/1/5 311/1/5 326/1/5
f 328/1/5 313/1/5 312/1/5
f 328/2/5 312/2/5 327/2/5
f 329/2/5 325/2/5 324/2/5
f 329/1/5 313/1/5 328/1/5
f 329/2/5 324/2/5 313/2/5
f 330/2/5 328/2/5 327/2/5
f 330/2/5 326/2/5 309/2/5
f 330/2/5 329/2/5 328/2/5
f 330/2/5 327/2/5 326/2/5
f 331/2/5 325/2/5 329/2/5
f 331/2/5 329/2/5 330/2/5
f 332/2/5 325/2/5 331/2/5
f 333/2/5 325/2/5 332/2/5
f 334/2/5 332/2/5 331/2/5
f 334/1/5 333/1/5 332/1/5
f 335/1/5 333/1/5 334/1/5
f 336/2/5 334/2/5 331/2/5
f 336/2/5 335/2/5 334/2/5
f 337/2/5 335/2/5 336/2/5
f 338/2/5 336/2/5 331/2/5
f 338/1/5 337/1/5 336/1/5
f 339/1/5 337/1/5 338/1/5
f 340/2/5 338/2/5 331/2/5
f 340/2/5 339/2/5 338/2/5
f 341/2/5 339/2/5 340/2/5
f 342/2/6 343/2/6 349/2/6
f 343/1/6 344/1/6 350/1/6
f 349/2/6 343/2/6 350/2/6
f 344/2/6 345/2/6 351/2/6
f 350/1/6 344/1/6 351/1/6
f 345/1/6 346/1/6 352/1/6
f 351/2/6 345/2/6 352/2/6
f 346/2/6 347/2/6 353/2/6
f 352/1/6 346/1/6 353/1/6
f 347/1/6 348/1/6 354/1/6
f 353/2/6 347/2/6 354/2/6
f 354/1/6 348/1/6 355/1/6
f 355/1/6 356/1/6 357/1/6
f 357/1/6 356/1/6 358/1/6
f 358/1/6 359/1/6 360/1/6
f 360/1/6 359/1/6 361/1/6
f 361/1/6 362/1/6 363/1/6
f 363/1/6 362/1/6 364/1/6
f 363/2/6 364/2/6 365/2/6
f 365/2/6 364/2/6 366/2/6
f 365/1/6 366/1/6 367/1/6
f 367/1/6 366/1/6 368/1/6
f 367/2/6 368/2/6 369/2/6
f 369/2/6 368/2/6 370/2/6
f 369/1/6 370/1/6 371/1/6
f 371/1/6 370/1/6 372/1/6
f 371/2/6 372/2/6 373/2/6
f 373/2/6 372/2/6 374/2/6
f 375/2/6 376/2/6 382/2/6
f 376/1/6 377/1/6 383/1/6
f 382/2/6 376/2/6 383/2/6
f 377/2/6 378/2/6 384/2/6
f 383/1/6 377/1/6 384/1/6
f 378/1/6 379/1/6 385/1/6
f 384/2/6 378/2/6 385/2/6
f 379/2/6 380/2/6 386/2/6
f 385/1/6 379/1/6 386/1/6
f 380/1/6 381/1/6 387/1/6
f 386/2/6 380/2/6 387/2/6
f 387/1/6 381/1/6 388/1/6
f 388/1/6 389/1/6 390/1/6
f 390/1/6 389/1/6 391/1/6
f 391/1/6 392/1/6 393/1/6
f 393/1/6 392/1/6 394/1/6
f 393/2/6 394/2/6 395/2/6
f 395/2/6 394/2/6 396/2/6
f 395/1/6 396/1/6 397/1/6
f 397/1/6 396/1/6 398/1/6
f 397/2/6 398/2/6 399/2/6
f 399/2/6 398/2/6 400/2/6
f 399/1/6 400/1/6 401/1/6
f 401/1/6 400/1/6 402/1/6
f 401/2/6 402/2/6 403/2/6
f 403/2/6 402/2/6 404/2/6
f 405/2/6 406/2/6 412/2/6
f 406/1/6 407/1/6 413/1/6
f 412/2/6 406/2/6 413/2/6
f 407/2/6 408/2/6 414/2/6
f 413/1/6 407/1/6 414/1/6
f 408/1/6 409/1/6 415/1/6
f 414/2/6 408/2/6 415/2/6
f 409/2/6 410/2/6 416/2/6
f 415/1/6 409/1/6 416/1/6
f 410/1/6 411/1/6 417/1/6
f 416/2/6 410/2/6 417/2/6
f 417/1/6 411/1/6 418/1/6
f 418/1/6 411/1/6 419/1/6
f 419/1/6 420/1/6 421/1/6
f 418/1/6 419/1/6 421/1/6
f 421/1/6 420/1/6 422/1/6
f 422/1/6 420/1/6 423/1/6
f 423/1/6 420/1/6 424/1/6
f 423/2/6 424/2/6 425/2/6
f 425/2/6 424/2/6 426/2/6
f 425/1/6 426/1/6 427/1/6
f 427/1/6 426/1/6 428/1/6
f 427/2/6 428/2/6 429/2/6
f 429/2/6 428/2/6 430/2/6
f 429/1/6 430/1/6 431/1/6
f 431/1/6 430/1/6 432/1/6
f 431/2/6 432/2/6 433/2/6
f 433/2/6 432/2/6 434/2/6
f 435/2/6 436/2/6 442/2/6
f 436/1/6 437/1/6 443/1/6
f 442/2/6 436/2/6 443/2/6
f 437/2/6 438/2/6 444/2/6
f 443/1/6 437/1/6 444/1/6
f 438/1/6 439/1/6 445/1/6
f 444/2/6 438/2/6 445/2/6
f 439/2/6 440/2/6 446/2/6
f 445/1/6 439/1/6 446/1/6
f 440/1/6 441/1/6 447/1/6
f 446/2/6 440/2/6 447/2/6
f 447/1/6 441/1/6 448/1/6
f 448/1/6 449/1/6 450/1/6
f 450/1/6 449/1/6 451/1/6
f 450/2/6 451/2/6 452/2/6
f 452/2/6 451/2/6 453/2/6
f 452/1/6 453/1/6 454/1/6
f 454/1/6 453/1/6 455/1/6
f 454/2/6 455/2/6 456/2/6
f 456/2/6 455/2/6 457/2/6
f 456/1/6 457/1/6 458/1/6
f 458/1/6 457/1/6 459/1/6
f 458/2/6 459/2/6 460/2/6
f 460/2/6 459/2/6 461/2/6
f 462/2/6 463/2/6 469/2/6
f 463/1/6 464/1/6 470/1/6
f 469/2/6 463/2/6 470/2/6
f 464/2/6 465/2/6 471/2/6
f 470/1/6 464/1/6 471/1/6
f 465/1/6 466/1/6 472/1/6
f 471/2/6 465/2/6 472/2/6
f 466/2/6 467/2/6 473/2/6
f 472/1/6 466/1/6 473/1/6
f 467/1/6 468/1/6 474/1/6
f 473/2/6 467/2/6 474/2/6
f 474/1/6 468/1/6 475/1/6
f 475/1/6 468/1/6 476/1/6
f 476/1/6 468/1/6 477/1/6
f 476/2/6 477/2/6 478/2/6
f 478/2/6 477/2/6 479/2/6
f 478/1/6 479/1/6 480/1/6
f 480/1/6 479/1/6 481/1/6
f 480/2/6 481/2/6 482/2/6
f 482/2/6 481/2/6 483/2/6
f 482/1/6 483/1/6 484/1/6
f 484/1/6 483/1/6 485/1/6
f 484/2/6 485/2/6 486/2/6
f 486/2/6 485/2/6 487/2/6
f 488/2/6 489/2/6 495/2/6
f 489/1/6 490/1/6 496/1/6
f 495/2/6 489/2/6 496/2/6
f 490/2/6 491/2/6 497/2/6
f 496/1/6 490/1/6 497/1/6
f 491/1/6 492/1/6 498/1/6
f 497/2/6 491/2/6 498/2/6
f 492/2/6 493/2/6 499/2/6
f 498/1/6 492/1/6 499/1/6
f 493/1/6 494/1/6 500/1/6
f 499/2/6 493/2/6 500/2/6
f 500/1/6 494/1/6 501/1/6
f 501/1/6 494/1/6 502/1/6
f 502/1/6 494/1/6 503/1/6
f 502/2/6 503/2/6 504/2/6
f 504/2/6 503/2/6 505/2/6
f 504/1/6 505/1/6 506/1/6
f 506/1/6 505/1/6 507/1/6
f 506/2/6 507/2/6 508/2/6
f 508/2/6 507/2/6 509/2/6
f 508/1/6 509/1/6 510/1/6
f 510/1/6 509/1/6 511/1/6
f 510/2/6 511/2/6 512/2/6
f 512/2/6 511/2/6 513/2/6
f 514/2/6 515/2/6 521/2/6
f 515/1/6 516/1/6 522/1/6
f 521/2/6 515/2/6 522/2/6
f 516/2/6 517/2/6 523/2/6
f 522/1/6 516/1/6 523/1/6
f 517/1/6 518/1/6 524/1/6
f 523/2/6 517/2/6 524/2/6
f 518/2/6 519/2/6 525/2/6
f 524/1/6 518/1/6 525/1/6
f 519/1/6 520/1/6 526/1/6
f 525/2/6 519/2/6 526/2/6
f 526/1/6 520/1/6 527/1/6
f 526/2/6 527/2/6 528/2/6
f 528/2/6 527/2/6 529/2/6
f 528/1/6 529/1/6 530/1/6
f 530/1/6 529/1/6 531/1/6
f 530/2/6 531/2/6 532/2/6
f 532/2/6 531/2/6 533/2/6
f 532/1/6 533/1/6 534/1/6
f 534/1/6 533/1/6 535/1/6
f 534/2/6 535/2/6 536/2/6
f 536/2/6 535/2/6 537/2/6
f 538/2/6 539/2/6 544/2/6
f 539/1/6 540/1/6 544/1/6
f 540/2/6 541/2/6 545/2/6
f 544/1/6 540/1/6 545/1/6
f 541/1/6 542/1/6 546/1/6
f 545/2/6 541/2/6 546/2/6
f 542/2/6 543/2/6 547/2/6
f 546/1/6 542/1/6 547/1/6
f 545/2/6 546/2/6 548/2/6
f 544/2/6 545/2/6 548/2/6
f 546/2/6 547/2/6 548/2/6
f 538/2/6 544/2/6 548/2/6
f 547/2/6 543/2/6 549/2/6
f 548/2/6 547/2/6 549/2/6
f 549/2/6 543/2/6 550/2/6
f 550/2/6 543/2/6 551/2/6
f 549/2/6 550/2/6 552/2/6
f 550/1/6 551/1/6 552/1/6
f 552/1/6 551/1/6 553/1/6
f 549/2/6 552/2/6 554/2/6
f 552/2/6 553/2/6 554/2/6
f 554/2/6 553/2/6 555/2/6
f 549/2/6 554/2/6 556/2/6
f 554/1/6 555/1/6 556/1/6
f 556/1/6 555/1/6 557/1/6
f 549/2/6 556/2/6 558/2/6
f 556/2/6 557/2/6 558/2/6
f 558/2/6 557/2/6 559/2/6
