# MagicaVoxel @ Ephtracy

# group
g barrel

# material
mtllib barrel.mtl
usemtl palette

# normals
vn -1 0 0
vn 1 0 0
vn 0 0 1
vn 0 0 -1
vn 0 -1 0
vn 0 1 0

# texcoords
vt 0.591797 0.5
vt 0.990234 0.5

# verts
v -10 0 5
v -10 0 -1
v -10 3 5
v -10 3 -1
v -10 18 5
v -10 18 -1
v -10 21 5
v -10 21 -1
v -9 0 7
v -9 0 5
v -9 0 -1
v -9 0 -3
v -9 3 7
v -9 3 5
v -9 3 -1
v -9 3 -3
v -9 18 7
v -9 18 5
v -9 18 -1
v -9 18 -3
v -9 21 7
v -9 21 5
v -9 21 -1
v -9 21 -3
v -8 0 8
v -8 0 7
v -8 0 -3
v -8 0 -4
v -8 3 8
v -8 3 7
v -8 3 -3
v -8 3 -4
v -8 18 8
v -8 18 7
v -8 18 -3
v -8 18 -4
v -8 21 8
v -8 21 7
v -8 21 -3
v -8 21 -4
v -7 0 9
v -7 0 8
v -7 0 -4
v -7 0 -5
v -7 3 9
v -7 3 8
v -7 3 -4
v -7 3 -5
v -7 18 9
v -7 18 8
v -7 18 -4
v -7 18 -5
v -7 21 9
v -7 21 8
v -7 21 -4
v -7 21 -5
v -5 0 10
v -5 0 9
v -5 0 -5
v -5 0 -6
v -5 3 10
v -5 3 9
v -5 3 -5
v -5 3 -6
v -5 18 10
v -5 18 9
v -5 18 -5
v -5 18 -6
v -5 21 10
v -5 21 9
v -5 21 -5
v -5 21 -6
v 10 0 -13
v 10 0 -17
v 10 2 -13
v 10 2 -17
v 10 7 -13
v 10 7 -17
v 10 9 -13
v 10 9 -17
v 11 0 -12
v 11 0 -13
v 11 0 -17
v 11 0 -18
v 11 2 -12
v 11 2 -13
v 11 2 -17
v 11 2 -18
v 11 7 -12
v 11 7 -13
v 11 7 -17
v 11 7 -18
v 11 9 -12
v 11 9 -13
v 11 9 -17
v 11 9 -18
v 12 0 -11
v 12 0 -12
v 12 0 -18
v 12 0 -19
v 12 2 -11
v 12 2 -12
v 12 2 -18
v 12 2 -19
v 12 7 -11
v 12 7 -12
v 12 7 -18
v 12 7 -19
v 12 9 -11
v 12 9 -12
v 12 9 -18
v 12 9 -19
v 1 0 10
v 1 0 9
v 1 0 -5
v 1 0 -6
v 1 3 10
v 1 3 9
v 1 3 -5
v 1 3 -6
v 1 18 10
v 1 18 9
v 1 18 -5
v 1 18 -6
v 1 21 10
v 1 21 9
v 1 21 -5
v 1 21 -6
v 3 0 9
v 3 0 8
v 3 0 -4
v 3 0 -5
v 3 3 9
v 3 3 8
v 3 3 -4
v 3 3 -5
v 3 18 9
v 3 18 8
v 3 18 -4
v 3 18 -5
v 3 21 9
v 3 21 8
v 3 21 -4
v 3 21 -5
v 4 0 8
v 4 0 7
v 4 0 -3
v 4 0 -4
v 4 3 8
v 4 3 7
v 4 3 -3
v 4 3 -4
v 4 18 8
v 4 18 7
v 4 18 -3
v 4 18 -4
v 4 21 8
v 4 21 7
v 4 21 -3
v 4 21 -4
v 5 0 7
v 5 0 5
v 5 0 -1
v 5 0 -3
v 5 3 7
v 5 3 5
v 5 3 -1
v 5 3 -3
v 5 18 7
v 5 18 5
v 5 18 -1
v 5 18 -3
v 5 21 7
v 5 21 5
v 5 21 -1
v 5 21 -3
v 6 0 5
v 6 0 -1
v 6 3 5
v 6 3 -1
v 6 18 5
v 6 18 -1
v 6 21 5
v 6 21 -1
v 16 0 -11
v 16 0 -12
v 16 0 -18
v 16 0 -19
v 16 2 -11
v 16 2 -12
v 16 2 -18
v 16 2 -19
v 16 7 -11
v 16 7 -12
v 16 7 -18
v 16 7 -19
v 16 9 -11
v 16 9 -12
v 16 9 -18
v 16 9 -19
v 17 0 -12
v 17 0 -13
v 17 0 -17
v 17 0 -18
v 17 2 -12
v 17 2 -13
v 17 2 -17
v 17 2 -18
v 17 7 -12
v 17 7 -13
v 17 7 -17
v 17 7 -18
v 17 9 -12
v 17 9 -13
v 17 9 -17
v 17 9 -18
v 18 0 -13
v 18 0 -17
v 18 2 -13
v 18 2 -17
v 18 7 -13
v 18 7 -17
v 18 9 -13
v 18 9 -17
v -5 0 10
v -5 3 10
v -5 18 10
v -5 21 10
v 1 0 10
v 1 3 10
v 1 18 10
v 1 21 10
v -7 0 9
v -7 3 9
v -7 18 9
v -7 21 9
v -5 0 9
v -5 3 9
v -5 18 9
v -5 21 9
v 1 0 9
v 1 3 9
v 1 18 9
v 1 21 9
v 3 0 9
v 3 3 9
v 3 18 9
v 3 21 9
v -8 0 8
v -8 3 8
v -8 18 8
v -8 21 8
v -7 0 8
v -7 3 8
v -7 18 8
v -7 21 8
v 3 0 8
v 3 3 8
v 3 18 8
v 3 21 8
v 4 0 8
v 4 3 8
v 4 18 8
v 4 21 8
v -9 0 7
v -9 3 7
v -9 18 7
v -9 21 7
v -8 0 7
v -8 3 7
v -8 18 7
v -8 21 7
v 4 0 7
v 4 3 7
v 4 18 7
v 4 21 7
v 5 0 7
v 5 3 7
v 5 18 7
v 5 21 7
v -10 0 5
v -10 3 5
v -10 18 5
v -10 21 5
v -9 0 5
v -9 3 5
v -9 18 5
v -9 21 5
v 5 0 5
v 5 3 5
v 5 18 5
v 5 21 5
v 6 0 5
v 6 3 5
v 6 18 5
v 6 21 5
v 12 0 -11
v 12 2 -11
v 12 7 -11
v 12 9 -11
v 16 0 -11
v 16 2 -11
v 16 7 -11
v 16 9 -11
v 11 0 -12
v 11 2 -12
v 11 7 -12
v 11 9 -12
v 12 0 -12
v 12 2 -12
v 12 7 -12
v 12 9 -12
v 16 0 -12
v 16 2 -12
v 16 7 -12
v 16 9 -12
v 17 0 -12
v 17 2 -12
v 17 7 -12
v 17 9 -12
v 10 0 -13
v 10 2 -13
v 10 7 -13
v 10 9 -13
v 11 0 -13
v 11 2 -13
v 11 7 -13
v 11 9 -13
v 17 0 -13
v 17 2 -13
v 17 7 -13
v 17 9 -13
v 18 0 -13
v 18 2 -13
v 18 7 -13
v 18 9 -13
v -10 0 -1
v -10 3 -1
v -10 18 -1
v -10 21 -1
v -9 0 -1
v -9 3 -1
v -9 18 -1
v -9 21 -1
v 5 0 -1
v 5 3 -1
v 5 18 -1
v 5 21 -1
v 6 0 -1
v 6 3 -1
v 6 18 -1
v 6 21 -1
v -9 0 -3
v -9 3 -3
v -9 18 -3
v -9 21 -3
v -8 0 -3
v -8 3 -3
v -8 18 -3
v -8 21 -3
v 4 0 -3
v 4 3 -3
v 4 18 -3
v 4 21 -3
v 5 0 -3
v 5 3 -3
v 5 18 -3
v 5 21 -3
v -8 0 -4
v -8 3 -4
v -8 18 -4
v -8 21 -4
v -7 0 -4
v -7 3 -4
v -7 18 -4
v -7 21 -4
v 3 0 -4
v 3 3 -4
v 3 18 -4
v 3 21 -4
v 4 0 -4
v 4 3 -4
v 4 18 -4
v 4 21 -4
v -7 0 -5
v -7 3 -5
v -7 18 -5
v -7 21 -5
v -5 0 -5
v -5 3 -5
v -5 18 -5
v -5 21 -5
v 1 0 -5
v 1 3 -5
v 1 18 -5
v 1 21 -5
v 3 0 -5
v 3 3 -5
v 3 18 -5
v 3 21 -5
v -5 0 -6
v -5 3 -6
v -5 18 -6
v -5 21 -6
v 1 0 -6
v 1 3 -6
v 1 18 -6
v 1 21 -6
v 10 0 -17
v 10 2 -17
v 10 7 -17
v 10 9 -17
v 11 0 -17
v 11 2 -17
v 11 7 -17
v 11 9 -17
v 17 0 -17
v 17 2 -17
v 17 7 -17
v 17 9 -17
v 18 0 -17
v 18 2 -17
v 18 7 -17
v 18 9 -17
v 11 0 -18
v 11 2 -18
v 11 7 -18
v 11 9 -18
v 12 0 -18
v 12 2 -18
v 12 7 -18
v 12 9 -18
v 16 0 -18
v 16 2 -18
v 16 7 -18
v 16 9 -18
v 17 0 -18
v 17 2 -18
v 17 7 -18
v 17 9 -18
v 12 0 -19
v 12 2 -19
v 12 7 -19
v 12 9 -19
v 16 0 -19
v 16 2 -19
v 16 7 -19
v 16 9 -19
v -5 0 10
v 1 0 10
v -7 0 9
v -5 0 9
v 1 0 9
v 3 0 9
v -8 0 8
v -7 0 8
v 3 0 8
v 4 0 8
v -9 0 7
v -8 0 7
v 4 0 7
v 5 0 7
v -10 0 5
v -9 0 5
v 5 0 5
v 6 0 5
v -10 0 -1
v -9 0 -1
v 5 0 -1
v 6 0 -1
v -9 0 -3
v -8 0 -3
v 4 0 -3
v 5 0 -3
v -8 0 -4
v -7 0 -4
v 3 0 -4
v 4 0 -4
v -7 0 -5
v -5 0 -5
v 1 0 -5
v 3 0 -5
v -5 0 -6
v 1 0 -6
v 12 0 -11
v 16 0 -11
v 11 0 -12
v 12 0 -12
v 16 0 -12
v 17 0 -12
v 10 0 -13
v 11 0 -13
v 17 0 -13
v 18 0 -13
v 10 0 -17
v 11 0 -17
v 17 0 -17
v 18 0 -17
v 11 0 -18
v 12 0 -18
v 16 0 -18
v 17 0 -18
v 12 0 -19
v 16 0 -19
v 12 9 -11
v 16 9 -11
v 11 9 -12
v 12 9 -12
v 16 9 -12
v 17 9 -12
v 10 9 -13
v 11 9 -13
v 17 9 -13
v 18 9 -13
v 10 9 -17
v 11 9 -17
v 17 9 -17
v 18 9 -17
v 11 9 -18
v 12 9 -18
v 16 9 -18
v 17 9 -18
v 12 9 -19
v 16 9 -19
v -5 21 10
v 1 21 10
v -7 21 9
v -5 21 9
v 1 21 9
v 3 21 9
v -8 21 8
v -7 21 8
v 3 21 8
v 4 21 8
v -9 21 7
v -8 21 7
v 4 21 7
v 5 21 7
v -10 21 5
v -9 21 5
v 5 21 5
v 6 21 5
v -10 21 -1
v -9 21 -1
v 5 21 -1
v 6 21 -1
v -9 21 -3
v -8 21 -3
v 4 21 -3
v 5 21 -3
v -8 21 -4
v -7 21 -4
v 3 21 -4
v 4 21 -4
v -7 21 -5
v -5 21 -5
v 1 21 -5
v 3 21 -5
v -5 21 -6
v 1 21 -6

# faces
f 3/2/1 2/2/1 1/2/1
f 4/2/1 2/2/1 3/2/1
f 5/1/1 4/1/1 3/1/1
f 6/1/1 4/1/1 5/1/1
f 7/2/1 6/2/1 5/2/1
f 8/2/1 6/2/1 7/2/1
f 13/2/1 10/2/1 9/2/1
f 14/2/1 10/2/1 13/2/1
f 15/2/1 12/2/1 11/2/1
f 16/2/1 12/2/1 15/2/1
f 17/1/1 14/1/1 13/1/1
f 18/1/1 14/1/1 17/1/1
f 19/1/1 16/1/1 15/1/1
f 20/1/1 16/1/1 19/1/1
f 21/2/1 18/2/1 17/2/1
f 22/2/1 18/2/1 21/2/1
f 23/2/1 20/2/1 19/2/1
f 24/2/1 20/2/1 23/2/1
f 29/2/1 26/2/1 25/2/1
f 30/2/1 26/2/1 29/2/1
f 31/2/1 28/2/1 27/2/1
f 32/2/1 28/2/1 31/2/1
f 33/1/1 30/1/1 29/1/1
f 34/1/1 30/1/1 33/1/1
f 35/1/1 32/1/1 31/1/1
f 36/1/1 32/1/1 35/1/1
f 37/2/1 34/2/1 33/2/1
f 38/2/1 34/2/1 37/2/1
f 39/2/1 36/2/1 35/2/1
f 40/2/1 36/2/1 39/2/1
f 45/2/1 42/2/1 41/2/1
f 46/2/1 42/2/1 45/2/1
f 47/2/1 44/2/1 43/2/1
f 48/2/1 44/2/1 47/2/1
f 49/1/1 46/1/1 45/1/1
f 50/1/1 46/1/1 49/1/1
f 51/1/1 48/1/1 47/1/1
f 52/1/1 48/1/1 51/1/1
f 53/2/1 50/2/1 49/2/1
f 54/2/1 50/2/1 53/2/1
f 55/2/1 52/2/1 51/2/1
f 56/2/1 52/2/1 55/2/1
f 61/2/1 58/2/1 57/2/1
f 62/2/1 58/2/1 61/2/1
f 63/2/1 60/2/1 59/2/1
f 64/2/1 60/2/1 63/2/1
f 65/1/1 62/1/1 61/1/1
f 66/1/1 62/1/1 65/1/1
f 67/1/1 64/1/1 63/1/1
f 68/1/1 64/1/1 67/1/1
f 69/2/1 66/2/1 65/2/1
f 70/2/1 66/2/1 69/2/1
f 71/2/1 68/2/1 67/2/1
f 72/2/1 68/2/1 71/2/1
f 75/2/1 74/2/1 73/2/1
f 76/2/1 74/2/1 75/2/1
f 77/1/1 76/1/1 75/1/1
f 78/1/1 76/1/1 77/1/1
f 79/2/1 78/2/1 77/2/1
f 80/2/1 78/2/1 79/2/1
f 85/2/1 82/2/1 81/2/1
f 86/2/1 82/2/1 85/2/1
f 87/2/1 84/2/1 83/2/1
f 88/2/1 84/2/1 87/2/1
f 89/1/1 86/1/1 85/1/1
f 90/1/1 86/1/1 89/1/1
f 91/1/1 88/1/1 87/1/1
f 92/1/1 88/1/1 91/1/1
f 93/2/1 90/2/1 89/2/1
f 94/2/1 90/2/1 93/2/1
f 95/2/1 92/2/1 91/2/1
f 96/2/1 92/2/1 95/2/1
f 101/2/1 98/2/1 97/2/1
f 102/2/1 98/2/1 101/2/1
f 103/2/1 100/2/1 99/2/1
f 104/2/1 100/2/1 103/2/1
f 105/1/1 102/1/1 101/1/1
f 106/1/1 102/1/1 105/1/1
f 107/1/1 104/1/1 103/1/1
f 108/1/1 104/1/1 107/1/1
f 109/2/1 106/2/1 105/2/1
f 110/2/1 106/2/1 109/2/1
f 111/2/1 108/2/1 107/2/1
f 112/2/1 108/2/1 111/2/1
f 113/2/2 114/2/2 117/2/2
f 117/2/2 114/2/2 118/2/2
f 115/2/2 116/2/2 119/2/2
f 119/2/2 116/2/2 120/2/2
f 117/1/2 118/1/2 121/1/2
f 121/1/2 118/1/2 122/1/2
f 119/1/2 120/1/2 123/1/2
f 123/1/2 120/1/2 124/1/2
f 121/2/2 122/2/2 125/2/2
f 125/2/2 122/2/2 126/2/2
f 123/2/2 124/2/2 127/2/2
f 127/2/2 124/2/2 128/2/2
f 129/2/2 130/2/2 133/2/2
f 133/2/2 130/2/2 134/2/2
f 131/2/2 132/2/2 135/2/2
f 135/2/2 132/2/2 136/2/2
f 133/1/2 134/1/2 137/1/2
f 137/1/2 134/1/2 138/1/2
f 135/1/2 136/1/2 139/1/2
f 139/1/2 136/1/2 140/1/2
f 137/2/2 138/2/2 141/2/2
f 141/2/2 138/2/2 142/2/2
f 139/2/2 140/2/2 143/2/2
f 143/2/2 140/2/2 144/2/2
f 145/2/2 146/2/2 149/2/2
f 149/2/2 146/2/2 150/2/2
f 147/2/2 148/2/2 151/2/2
f 151/2/2 148/2/2 152/2/2
f 149/1/2 150/1/2 153/1/2
f 153/1/2 150/1/2 154/1/2
f 151/1/2 152/1/2 155/1/2
f 155/1/2 152/1/2 156/1/2
f 153/2/2 154/2/2 157/2/2
f 157/2/2 154/2/2 158/2/2
f 155/2/2 156/2/2 159/2/2
f 159/2/2 156/2/2 160/2/2
f 161/2/2 162/2/2 165/2/2
f 165/2/2 162/2/2 166/2/2
f 163/2/2 164/2/2 167/2/2
f 167/2/2 164/2/2 168/2/2
f 165/1/2 166/1/2 169/1/2
f 169/1/2 166/1/2 170/1/2
f 167/1/2 168/1/2 171/1/2
f 171/1/2 168/1/2 172/1/2
f 169/2/2 170/2/2 173/2/2
f 173/2/2 170/2/2 174/2/2
f 171/2/2 172/2/2 175/2/2
f 175/2/2 172/2/2 176/2/2
f 177/2/2 178/2/2 179/2/2
f 179/2/2 178/2/2 180/2/2
f 179/1/2 180/1/2 181/1/2
f 181/1/2 180/1/2 182/1/2
f 181/2/2 182/2/2 183/2/2
f 183/2/2 182/2/2 184/2/2
f 185/2/2 186/2/2 189/2/2
f 189/2/2 186/2/2 190/2/2
f 187/2/2 188/2/2 191/2/2
f 191/2/2 188/2/2 192/2/2
f 189/1/2 190/1/2 193/1/2
f 193/1/2 190/1/2 194/1/2
f 191/1/2 192/1/2 195/1/2
f 195/1/2 192/1/2 196/1/2
f 193/2/2 194/2/2 197/2/2
f 197/2/2 194/2/2 198/2/2
f 195/2/2 196/2/2 199/2/2
f 199/2/2 196/2/2 200/2/2
f 201/2/2 202/2/2 205/2/2
f 205/2/2 202/2/2 206/2/2
f 203/2/2 204/2/2 207/2/2
f 207/2/2 204/2/2 208/2/2
f 205/1/2 206/1/2 209/1/2
f 209/1/2 206/1/2 210/1/2
f 207/1/2 208/1/2 211/1/2
f 211/1/2 208/1/2 212/1/2
f 209/2/2 210/2/2 213/2/2
f 213/2/2 210/2/2 214/2/2
f 211/2/2 212/2/2 215/2/2
f 215/2/2 212/2/2 216/2/2
f 217/2/2 218/2/2 219/2/2
f 219/2/2 218/2/2 220/2/2
f 219/1/2 220/1/2 221/1/2
f 221/1/2 220/1/2 222/1/2
f 221/2/2 222/2/2 223/2/2
f 223/2/2 222/2/2 224/2/2
f 229/2/3 226/2/3 225/2/3
f 230/1/3 227/1/3 226/1/3
f 230/2/3 226/2/3 229/2/3
f 231/2/3 228/2/3 227/2/3
f 231/1/3 227/1/3 230/1/3
f 232/2/3 228/2/3 231/2/3
f 237/2/3 234/2/3 233/2/3
f 238/1/3 235/1/3 234/1/3
f 238/2/3 234/2/3 237/2/3
f 239/2/3 236/2/3 235/2/3
f 239/1/3 235/1/3 238/1/3
f 240/2/3 236/2/3 239/2/3
f 245/2/3 242/2/3 241/2/3
f 246/1/3 243/1/3 242/1/3
f 246/2/3 242/2/3 245/2/3
f 247/2/3 244/2/3 243/2/3
f 247/1/3 243/1/3 246/1/3
f 248/2/3 244/2/3 247/2/3
f 253/2/3 250/2/3 249/2/3
f 254/1/3 251/1/3 250/1/3
f 254/2/3 250/2/3 253/2/3
f 255/2/3 252/2/3 251/2/3
f 255/1/3 251/1/3 254/1/3
f 256/2/3 252/2/3 255/2/3
f 261/2/3 258/2/3 257/2/3
f 262/1/3 259/1/3 258/1/3
f 262/2/3 258/2/3 261/2/3
f 263/2/3 260/2/3 259/2/3
f 263/1/3 259/1/3 262/1/3
f 264/2/3 260/2/3 263/2/3
f 269/2/3 266/2/3 265/2/3
f 270/1/3 267/1/3 266/1/3
f 270/2/3 266/2/3 269/2/3
f 271/2/3 268/2/3 267/2/3
f 271/1/3 267/1/3 270/1/3
f 272/2/3 268/2/3 271/2/3
f 277/2/3 274/2/3 273/2/3
f 278/1/3 275/1/3 274/1/3
f 278/2/3 274/2/3 277/2/3
f 279/2/3 276/2/3 275/2/3
f 279/1/3 275/1/3 278/1/3
f 280/2/3 276/2/3 279/2/3
f 285/2/3 282/2/3 281/2/3
f 286/1/3 283/1/3 282/1/3
f 286/2/3 282/2/3 285/2/3
f 287/2/3 284/2/3 283/2/3
f 287/1/3 283/1/3 286/1/3
f 288/2/3 284/2/3 287/2/3
f 293/2/3 290/2/3 289/2/3
f 294/1/3 291/1/3 290/1/3
f 294/2/3 290/2/3 293/2/3
f 295/2/3 292/2/3 291/2/3
f 295/1/3 291/1/3 294/1/3
f 296/2/3 292/2/3 295/2/3
f 301/2/3 298/2/3 297/2/3
f 302/1/3 299/1/3 298/1/3
f 302/2/3 298/2/3 301/2/3
f 303/2/3 300/2/3 299/2/3
f 303/1/3 299/1/3 302/1/3
f 304/2/3 300/2/3 303/2/3
f 309/2/3 306/2/3 305/2/3
f 310/1/3 307/1/3 306/1/3
f 310/2/3 306/2/3 309/2/3
f 311/2/3 308/2/3 307/2/3
f 311/1/3 307/1/3 310/1/3
f 312/2/3 308/2/3 311/2/3
f 317/2/3 314/2/3 313/2/3
f 318/1/3 315/1/3 314/1/3
f 318/2/3 314/2/3 317/2/3
f 319/2/3 316/2/3 315/2/3
f 319/1/3 315/1/3 318/1/3
f 320/2/3 316/2/3 319/2/3
f 325/2/3 322/2/3 321/2/3
f 326/1/3 323/1/3 322/1/3
f 326/2/3 322/2/3 325/2/3
f 327/2/3 324/2/3 323/2/3
f 327/1/3 323/1/3 326/1/3
f 328/2/3 324/2/3 327/2/3
f 333/2/3 330/2/3 329/2/3
f 334/1/3 331/1/3 330/1/3
f 334/2/3 330/2/3 333/2/3
f 335/2/3 332/2/3 331/2/3
f 335/1/3 331/1/3 334/1/3
f 336/2/3 332/2/3 335/2/3
f 337/2/4 338/2/4 341/2/4
f 338/1/4 339/1/4 342/1/4
f 341/2/4 338/2/4 342/2/4
f 339/2/4 340/2/4 343/2/4
f 342/1/4 339/1/4 343/1/4
f 343/2/4 340/2/4 344/2/4
f 345/2/4 346/2/4 349/2/4
f 346/1/4 347/1/4 350/1/4
f 349/2/4 346/2/4 350/2/4
f 347/2/4 348/2/4 351/2/4
f 350/1/4 347/1/4 351/1/4
f 351/2/4 348/2/4 352/2/4
f 353/2/4 354/2/4 357/2/4
f 354/1/4 355/1/4 358/1/4
f 357/2/4 354/2/4 358/2/4
f 355/2/4 356/2/4 359/2/4
f 358/1/4 355/1/4 359/1/4
f 359/2/4 356/2/4 360/2/4
f 361/2/4 362/2/4 365/2/4
f 362/1/4 363/1/4 366/1/4
f 365/2/4 362/2/4 366/2/4
f 363/2/4 364/2/4 367/2/4
f 366/1/4 363/1/4 367/1/4
f 367/2/4 364/2/4 368/2/4
f 369/2/4 370/2/4 373/2/4
f 370/1/4 371/1/4 374/1/4
f 373/2/4 370/2/4 374/2/4
f 371/2/4 372/2/4 375/2/4
f 374/1/4 371/1/4 375/1/4
f 375/2/4 372/2/4 376/2/4
f 377/2/4 378/2/4 381/2/4
f 378/1/4 379/1/4 382/1/4
f 381/2/4 378/2/4 382/2/4
f 379/2/4 380/2/4 383/2/4
f 382/1/4 379/1/4 383/1/4
f 383/2/4 380/2/4 384/2/4
f 385/2/4 386/2/4 389/2/4
f 386/1/4 387/1/4 390/1/4
f 389/2/4 386/2/4 390/2/4
f 387/2/4 388/2/4 391/2/4
f 390/1/4 387/1/4 391/1/4
f 391/2/4 388/2/4 392/2/4
f 393/2/4 394/2/4 397/2/4
f 394/1/4 395/1/4 398/1/4
f 397/2/4 394/2/4 398/2/4
f 395/2/4 396/2/4 399/2/4
f 398/1/4 395/1/4 399/1/4
f 399/2/4 396/2/4 400/2/4
f 401/2/4 402/2/4 405/2/4
f 402/1/4 403/1/4 406/1/4
f 405/2/4 402/2/4 406/2/4
f 403/2/4 404/2/4 407/2/4
f 406/1/4 403/1/4 407/1/4
f 407/2/4 404/2/4 408/2/4
f 409/2/4 410/2/4 413/2/4
f 410/1/4 411/1/4 414/1/4
f 413/2/4 410/2/4 414/2/4
f 411/2/4 412/2/4 415/2/4
f 414/1/4 411/1/4 415/1/4
f 415/2/4 412/2/4 416/2/4
f 417/2/4 418/2/4 421/2/4
f 418/1/4 419/1/4 422/1/4
f 421/2/4 418/2/4 422/2/4
f 419/2/4 420/2/4 423/2/4
f 422/1/4 419/1/4 423/1/4
f 423/2/4 420/2/4 424/2/4
f 425/2/4 426/2/4 429/2/4
f 426/1/4 427/1/4 430/1/4
f 429/2/4 426/2/4 430/2/4
f 427/2/4 428/2/4 431/2/4
f 430/1/4 427/1/4 431/1/4
f 431/2/4 428/2/4 432/2/4
f 433/2/4 434/2/4 437/2/4
f 434/1/4 435/1/4 438/1/4
f 437/2/4 434/2/4 438/2/4
f 435/2/4 436/2/4 439/2/4
f 438/1/4 435/1/4 439/1/4
f 439/2/4 436/2/4 440/2/4
f 441/2/4 442/2/4 445/2/4
f 442/1/4 443/1/4 446/1/4
f 445/2/4 442/2/4 446/2/4
f 443/2/4 444/2/4 447/2/4
f 446/1/4 443/1/4 447/1/4
f 447/2/4 444/2/4 448/2/4
f 452/2/5 450/2/5 449/2/5
f 453/2/5 450/2/5 452/2/5
f 456/2/5 452/2/5 451/2/5
f 456/2/5 454/2/5 453/2/5
f 456/2/5 453/2/5 452/2/5
f 457/2/5 454/2/5 456/2/5
f 460/2/5 456/2/5 455/2/5
f 460/2/5 458/2/5 457/2/5
f 460/2/5 457/2/5 456/2/5
f 461/2/5 458/2/5 460/2/5
f 464/2/5 460/2/5 459/2/5
f 464/2/5 462/2/5 461/2/5
f 464/2/5 461/2/5 460/2/5
f 465/2/5 462/2/5 464/2/5
f 467/2/5 464/2/5 463/2/5
f 467/2/5 466/2/5 465/2/5
f 467/2/5 465/2/5 464/2/5
f 468/2/5 466/2/5 467/2/5
f 469/2/5 466/2/5 468/2/5
f 470/2/5 466/2/5 469/2/5
f 471/2/5 469/2/5 468/2/5
f 472/2/5 469/2/5 471/2/5
f 473/2/5 469/2/5 472/2/5
f 474/2/5 469/2/5 473/2/5
f 475/2/5 473/2/5 472/2/5
f 476/2/5 473/2/5 475/2/5
f 477/2/5 473/2/5 476/2/5
f 478/2/5 473/2/5 477/2/5
f 479/2/5 477/2/5 476/2/5
f 480/2/5 477/2/5 479/2/5
f 481/2/5 477/2/5 480/2/5
f 482/2/5 477/2/5 481/2/5
f 483/2/5 481/2/5 480/2/5
f 484/2/5 481/2/5 483/2/5
f 488/2/5 486/2/5 485/2/5
f 489/2/5 486/2/5 488/2/5
f 492/2/5 488/2/5 487/2/5
f 492/2/5 490/2/5 489/2/5
f 492/2/5 489/2/5 488/2/5
f 493/2/5 490/2/5 492/2/5
f 495/2/5 492/2/5 491/2/5
f 495/2/5 494/2/5 493/2/5
f 495/2/5 493/2/5 492/2/5
f 496/2/5 494/2/5 495/2/5
f 497/2/5 494/2/5 496/2/5
f 498/2/5 494/2/5 497/2/5
f 499/2/5 497/2/5 496/2/5
f 500/2/5 497/2/5 499/2/5
f 501/2/5 497/2/5 500/2/5
f 502/2/5 497/2/5 501/2/5
f 503/2/5 501/2/5 500/2/5
f 504/2/5 501/2/5 503/2/5
f 505/2/6 506/2/6 508/2/6
f 508/2/6 506/2/6 509/2/6
f 507/2/6 508/2/6 512/2/6
f 509/2/6 510/2/6 512/2/6
f 508/2/6 509/2/6 512/2/6
f 512/2/6 510/2/6 513/2/6
f 511/2/6 512/2/6 515/2/6
f 513/2/6 514/2/6 515/2/6
f 512/2/6 513/2/6 515/2/6
f 515/2/6 514/2/6 516/2/6
f 516/2/6 514/2/6 517/2/6
f 517/2/6 514/2/6 518/2/6
f 516/2/6 517/2/6 519/2/6
f 519/2/6 517/2/6 520/2/6
f 520/2/6 517/2/6 521/2/6
f 521/2/6 517/2/6 522/2/6
f 520/2/6 521/2/6 523/2/6
f 523/2/6 521/2/6 524/2/6
f 525/2/6 526/2/6 528/2/6
f 528/2/6 526/2/6 529/2/6
f 527/2/6 528/2/6 532/2/6
f 529/2/6 530/2/6 532/2/6
f 528/2/6 529/2/6 532/2/6
f 532/2/6 530/2/6 533/2/6
f 531/2/6 532/2/6 536/2/6
f 533/2/6 534/2/6 536/2/6
f 532/2/6 533/2/6 536/2/6
f 536/2/6 534/2/6 537/2/6
f 535/2/6 536/2/6 540/2/6
f 537/2/6 538/2/6 540/2/6
f 536/2/6 537/2/6 540/2/6
f 540/2/6 538/2/6 541/2/6
f 539/2/6 540/2/6 543/2/6
f 541/2/6 542/2/6 543/2/6
f 540/2/6 541/2/6 543/2/6
f 543/2/6 542/2/6 544/2/6
f 544/2/6 542/2/6 545/2/6
f 545/2/6 542/2/6 546/2/6
f 544/2/6 545/2/6 547/2/6
f 547/2/6 545/2/6 548/2/6
f 548/2/6 545/2/6 549/2/6
f 549/2/6 545/2/6 550/2/6
f 548/2/6 549/2/6 551/2/6
f 551/2/6 549/2/6 552/2/6
f 552/2/6 549/2/6 553/2/6
f 553/2/6 549/2/6 554/2/6
f 552/2/6 553/2/6 555/2/6
f 555/2/6 553/2/6 556/2/6
f 556/2/6 553/2/6 557/2/6
f 557/2/6 553/2/6 558/2/6
f 556/2/6 557/2/6 559/2/6
f 559/2/6 557/2/6 560/2/6
