# MagicaVoxel @ Ephtracy

# group
g lamp

# material
mtllib lamp.mtl
usemtl palette

# normals
vn -1 0 0
vn 1 0 0
vn 0 0 1
vn 0 0 -1
vn 0 -1 0
vn 0 1 0

# texcoords
vt 0.591797 0.5
vt 0.990234 0.5

# verts
v -5 0 5
v -5 0 -5
v -5 1 2
v -5 1 -1
v -5 2 2
v -5 2 -1
v -5 9 5
v -5 9 2
v -5 9 -2
v -5 9 -5
v -5 10 5
v -5 10 2
v -5 10 -2
v -5 10 -5
v -5 14 5
v -5 14 3
v -5 15 5
v -5 15 3
v -5 17 -2
v -5 17 -5
v -5 18 -2
v -5 18 -5
v -5 21 5
v -5 21 -5
v -5 39 5
v -5 39 -5
v 5 0 5
v 5 0 -5
v 5 1 -1
v 5 1 -5
v 5 2 -1
v 5 2 -5
v 5 6 5
v 5 6 3
v 5 7 5
v 5 7 3
v 5 12 -2
v 5 12 -5
v 5 13 -2
v 5 13 -5
v 5 16 5
v 5 16 2
v 5 17 5
v 5 17 2
v 5 18 -2
v 5 18 -5
v 5 19 -2
v 5 19 -5
v 5 21 5
v 5 21 -5
v 5 39 5
v 5 39 -5
v -5 0 5
v -5 9 5
v -5 10 5
v -5 14 5
v -5 15 5
v -5 21 5
v -5 39 5
v -3 4 5
v -3 5 5
v -3 14 5
v -3 15 5
v -2 9 5
v -2 10 5
v 2 4 5
v 2 5 5
v 2 16 5
v 2 17 5
v 3 6 5
v 3 7 5
v 5 0 5
v 5 6 5
v 5 7 5
v 5 16 5
v 5 17 5
v 5 21 5
v 5 39 5
v -5 0 -5
v -5 9 -5
v -5 10 -5
v -5 17 -5
v -5 18 -5
v -5 21 -5
v -5 39 -5
v -2 9 -5
v -2 10 -5
v -2 17 -5
v -2 18 -5
v 1 1 -5
v 1 2 -5
v 2 12 -5
v 2 13 -5
v 4 18 -5
v 4 19 -5
v 5 0 -5
v 5 1 -5
v 5 2 -5
v 5 12 -5
v 5 13 -5
v 5 18 -5
v 5 19 -5
v 5 21 -5
v 5 39 -5
v -5 0 5
v 5 0 5
v -5 0 -5
v 5 0 -5
v -5 39 5
v 5 39 5
v -5 39 -5
v 5 39 -5

# faces
f 3/2/1 2/2/1 1/2/1
f 4/2/1 2/2/1 3/2/1
f 5/2/1 3/2/1 1/2/1
f 5/1/1 4/1/1 3/1/1
f 6/2/1 2/2/1 4/2/1
f 6/1/1 4/1/1 5/1/1
f 7/2/1 5/2/1 1/2/1
f 7/2/1 6/2/1 5/2/1
f 8/2/1 6/2/1 7/2/1
f 9/2/1 2/2/1 6/2/1
f 9/2/1 6/2/1 8/2/1
f 10/2/1 2/2/1 9/2/1
f 11/1/1 8/1/1 7/1/1
f 12/2/1 9/2/1 8/2/1
f 12/1/1 8/1/1 11/1/1
f 13/1/1 10/1/1 9/1/1
f 13/2/1 9/2/1 12/2/1
f 14/1/1 10/1/1 13/1/1
f 15/2/1 12/2/1 11/2/1
f 15/2/1 13/2/1 12/2/1
f 15/2/1 14/2/1 13/2/1
f 16/2/1 14/2/1 15/2/1
f 17/1/1 16/1/1 15/1/1
f 18/2/1 14/2/1 16/2/1
f 18/1/1 16/1/1 17/1/1
f 19/2/1 18/2/1 17/2/1
f 19/2/1 14/2/1 18/2/1
f 20/2/1 14/2/1 19/2/1
f 21/2/1 19/2/1 17/2/1
f 21/1/1 20/1/1 19/1/1
f 22/1/1 20/1/1 21/1/1
f 23/2/1 21/2/1 17/2/1
f 23/2/1 22/2/1 21/2/1
f 24/2/1 22/2/1 23/2/1
f 25/1/1 24/1/1 23/1/1
f 26/1/1 24/1/1 25/1/1
f 27/2/2 28/2/2 29/2/2
f 29/2/2 28/2/2 30/2/2
f 27/2/2 29/2/2 31/2/2
f 29/1/2 30/1/2 31/1/2
f 31/1/2 30/1/2 32/1/2
f 27/2/2 31/2/2 33/2/2
f 31/2/2 32/2/2 33/2/2
f 33/2/2 32/2/2 34/2/2
f 33/1/2 34/1/2 35/1/2
f 34/2/2 32/2/2 36/2/2
f 35/1/2 34/1/2 36/1/2
f 35/2/2 36/2/2 37/2/2
f 36/2/2 32/2/2 37/2/2
f 37/2/2 32/2/2 38/2/2
f 35/2/2 37/2/2 39/2/2
f 37/1/2 38/1/2 39/1/2
f 39/1/2 38/1/2 40/1/2
f 35/2/2 39/2/2 41/2/2
f 39/2/2 40/2/2 41/2/2
f 41/2/2 40/2/2 42/2/2
f 41/1/2 42/1/2 43/1/2
f 42/2/2 40/2/2 44/2/2
f 43/1/2 42/1/2 44/1/2
f 43/2/2 44/2/2 45/2/2
f 44/2/2 40/2/2 45/2/2
f 45/2/2 40/2/2 46/2/2
f 43/2/2 45/2/2 47/2/2
f 45/1/2 46/1/2 47/1/2
f 47/1/2 46/1/2 48/1/2
f 43/2/2 47/2/2 49/2/2
f 47/2/2 48/2/2 49/2/2
f 49/2/2 48/2/2 50/2/2
f 49/1/2 50/1/2 51/1/2
f 51/1/2 50/1/2 52/1/2
f 60/2/3 54/2/3 53/2/3
f 61/2/3 54/2/3 60/2/3
f 62/2/3 56/2/3 55/2/3
f 62/1/3 57/1/3 56/1/3
f 63/2/3 58/2/3 57/2/3
f 63/1/3 57/1/3 62/1/3
f 64/1/3 55/1/3 54/1/3
f 64/2/3 54/2/3 61/2/3
f 65/2/3 63/2/3 62/2/3
f 65/1/3 55/1/3 64/1/3
f 65/2/3 62/2/3 55/2/3
f 66/1/3 61/1/3 60/1/3
f 66/2/3 60/2/3 53/2/3
f 67/2/3 64/2/3 61/2/3
f 67/1/3 61/1/3 66/1/3
f 67/2/3 65/2/3 64/2/3
f 68/2/3 58/2/3 63/2/3
f 68/2/3 65/2/3 67/2/3
f 68/2/3 63/2/3 65/2/3
f 69/2/3 58/2/3 68/2/3
f 70/2/3 67/2/3 66/2/3
f 70/2/3 68/2/3 67/2/3
f 71/2/3 68/2/3 70/2/3
f 72/2/3 66/2/3 53/2/3
f 72/2/3 70/2/3 66/2/3
f 73/1/3 71/1/3 70/1/3
f 73/2/3 70/2/3 72/2/3
f 74/2/3 68/2/3 71/2/3
f 74/1/3 71/1/3 73/1/3
f 75/1/3 69/1/3 68/1/3
f 75/2/3 68/2/3 74/2/3
f 76/2/3 58/2/3 69/2/3
f 76/1/3 69/1/3 75/1/3
f 77/1/3 59/1/3 58/1/3
f 77/2/3 58/2/3 76/2/3
f 78/1/3 59/1/3 77/1/3
f 79/2/4 80/2/4 86/2/4
f 80/1/4 81/1/4 86/1/4
f 81/2/4 82/2/4 87/2/4
f 86/1/4 81/1/4 87/1/4
f 82/1/4 83/1/4 88/1/4
f 87/2/4 82/2/4 88/2/4
f 83/2/4 84/2/4 89/2/4
f 88/1/4 83/1/4 89/1/4
f 87/2/4 88/2/4 90/2/4
f 79/2/4 86/2/4 90/2/4
f 88/2/4 89/2/4 90/2/4
f 86/2/4 87/2/4 90/2/4
f 90/2/4 89/2/4 91/2/4
f 91/2/4 89/2/4 92/2/4
f 92/2/4 89/2/4 93/2/4
f 89/2/4 84/2/4 94/2/4
f 93/2/4 89/2/4 94/2/4
f 94/2/4 84/2/4 95/2/4
f 79/2/4 90/2/4 96/2/4
f 90/1/4 91/1/4 97/1/4
f 96/2/4 90/2/4 97/2/4
f 91/2/4 92/2/4 98/2/4
f 97/1/4 91/1/4 98/1/4
f 92/1/4 93/1/4 99/1/4
f 98/2/4 92/2/4 99/2/4
f 93/2/4 94/2/4 100/2/4
f 99/1/4 93/1/4 100/1/4
f 94/1/4 95/1/4 101/1/4
f 100/2/4 94/2/4 101/2/4
f 95/2/4 84/2/4 102/2/4
f 101/1/4 95/1/4 102/1/4
f 84/1/4 85/1/4 103/1/4
f 102/2/4 84/2/4 103/2/4
f 103/1/4 85/1/4 104/1/4
f 107/2/5 106/2/5 105/2/5
f 108/2/5 106/2/5 107/2/5
f 109/1/6 110/1/6 111/1/6
f 111/1/6 110/1/6 112/1/6
