# MagicaVoxel @ Ephtracy

# group
g stone

# material
mtllib stone.mtl
usemtl palette

# normals
vn -1 0 0
vn 1 0 0
vn 0 0 1
vn 0 0 -1
vn 0 -1 0
vn 0 1 0

# texcoords
vt 0.591797 0.5
vt 0.990234 0.5

# verts
v -20 0 20
v -20 0 18
v -20 0 7
v -20 0 -9
v -20 2 20
v -20 2 18
v -20 6 -9
v -20 6 -13
v -20 17 7
v -20 17 -0
v -20 18 -0
v -20 18 -13
v -2 0 -13
v -2 0 -15
v -2 2 -13
v -2 2 -15
v 6 0 -2
v 6 0 -3
v 6 1 -2
v 6 1 -3
v 9 0 20
v 9 0 8
v 9 4 20
v 9 4 13
v 9 6 20
v 9 6 13
v 9 11 20
v 9 11 8
v 15 0 -16
v 15 0 -20
v 15 2 -16
v 15 2 -17
v 15 3 -16
v 15 3 -17
v 15 4 -16
v 15 4 -20
v -18 0 20
v -18 0 18
v -18 1 19
v -18 1 18
v -18 2 20
v -18 2 19
v -18 2 18
v -6 6 -9
v -6 6 -13
v -6 11 -9
v -6 11 -13
v -6 12 -9
v -6 12 -13
v -6 17 -0
v -6 17 -9
v -6 18 -0
v -6 18 -13
v -1 0 7
v -1 0 -9
v -1 4 3
v -1 4 -9
v -1 6 3
v -1 6 -9
v -1 11 -4
v -1 11 -9
v -1 12 -4
v -1 12 -9
v -1 17 7
v -1 17 -9
v 0 0 -13
v 0 0 -15
v 0 1 -13
v 0 1 -14
v 0 2 -13
v 0 2 -14
v 0 2 -15
v 7 0 -2
v 7 0 -3
v 7 1 -2
v 7 1 -3
v 20 0 20
v 20 0 8
v 20 0 -16
v 20 0 -20
v 20 4 -16
v 20 4 -20
v 20 8 9
v 20 8 8
v 20 9 9
v 20 9 8
v 20 11 20
v 20 11 8
v -20 0 20
v -20 2 20
v -18 0 20
v -18 2 20
v 9 0 20
v 9 4 20
v 9 6 20
v 9 11 20
v 14 4 20
v 14 6 20
v 20 0 20
v 20 11 20
v -20 0 7
v -20 17 7
v -15 7 7
v -15 8 7
v -10 7 7
v -10 8 7
v -1 0 7
v -1 17 7
v -20 17 -0
v -20 18 -0
v -12 17 -0
v -12 18 -0
v -11 17 -0
v -11 18 -0
v -6 17 -0
v -6 18 -0
v 6 0 -2
v 6 1 -2
v 7 0 -2
v 7 1 -2
v -2 0 -13
v -2 2 -13
v -1 1 -13
v -1 2 -13
v 0 0 -13
v 0 1 -13
v 0 2 -13
v 15 0 -16
v 15 2 -16
v 15 3 -16
v 15 4 -16
v 19 2 -16
v 19 3 -16
v 20 0 -16
v 20 4 -16
v -20 0 18
v -20 2 18
v -19 1 18
v -19 2 18
v -18 0 18
v -18 1 18
v -18 2 18
v 9 0 8
v 9 11 8
v 13 8 8
v 13 9 8
v 20 0 8
v 20 8 8
v 20 9 8
v 20 11 8
v 6 0 -3
v 6 1 -3
v 7 0 -3
v 7 1 -3
v -20 0 -9
v -20 6 -9
v -6 6 -9
v -6 11 -9
v -6 12 -9
v -6 17 -9
v -2 4 -9
v -2 6 -9
v -1 0 -9
v -1 4 -9
v -1 6 -9
v -1 11 -9
v -1 12 -9
v -1 17 -9
v -20 6 -13
v -20 18 -13
v -16 11 -13
v -16 12 -13
v -6 6 -13
v -6 11 -13
v -6 12 -13
v -6 18 -13
v -2 0 -15
v -2 2 -15
v 0 0 -15
v 0 2 -15
v 15 0 -20
v 15 4 -20
v 20 0 -20
v 20 4 -20
v -20 0 20
v -18 0 20
v 9 0 20
v 20 0 20
v -20 0 18
v -18 0 18
v 9 0 8
v 20 0 8
v -20 0 7
v -1 0 7
v 6 0 -2
v 7 0 -2
v 6 0 -3
v 7 0 -3
v -20 0 -9
v -1 0 -9
v -2 0 -13
v 0 0 -13
v -2 0 -15
v 0 0 -15
v 15 0 -16
v 20 0 -16
v 15 0 -20
v 20 0 -20
v -20 6 -9
v -6 6 -9
v -20 6 -13
v -6 6 -13
v 6 1 -2
v 7 1 -2
v 6 1 -3
v 7 1 -3
v -20 2 20
v -18 2 20
v -19 2 19
v -18 2 19
v -20 2 18
v -19 2 18
v -18 2 18
v -2 2 -13
v -1 2 -13
v 0 2 -13
v -1 2 -14
v 0 2 -14
v -2 2 -15
v 0 2 -15
v 15 4 -16
v 20 4 -16
v 15 4 -20
v 20 4 -20
v 9 11 20
v 20 11 20
v 9 11 8
v 20 11 8
v -20 17 7
v -1 17 7
v -12 17 3
v -11 17 3
v -20 17 -0
v -12 17 -0
v -11 17 -0
v -6 17 -0
v -6 17 -9
v -1 17 -9
v -20 18 -0
v -12 18 -0
v -11 18 -0
v -6 18 -0
v -12 18 -9
v -11 18 -9
v -20 18 -13
v -6 18 -13

# faces
f 5/2/1 2/2/1 1/2/1
f 6/2/1 2/2/1 5/2/1
f 7/2/1 4/2/1 3/2/1
f 9/2/1 7/2/1 3/2/1
f 9/2/1 8/2/1 7/2/1
f 10/2/1 8/2/1 9/2/1
f 11/2/1 8/2/1 10/2/1
f 12/2/1 8/2/1 11/2/1
f 15/2/1 14/2/1 13/2/1
f 16/2/1 14/2/1 15/2/1
f 19/2/1 18/2/1 17/2/1
f 20/2/1 18/2/1 19/2/1
f 23/2/1 22/2/1 21/2/1
f 24/2/1 22/2/1 23/2/1
f 25/1/1 24/1/1 23/1/1
f 26/2/1 22/2/1 24/2/1
f 26/1/1 24/1/1 25/1/1
f 27/2/1 26/2/1 25/2/1
f 28/2/1 22/2/1 26/2/1
f 28/2/1 26/2/1 27/2/1
f 31/2/1 30/2/1 29/2/1
f 32/2/1 30/2/1 31/2/1
f 33/1/1 32/1/1 31/1/1
f 34/2/1 30/2/1 32/2/1
f 34/1/1 32/1/1 33/1/1
f 35/2/1 34/2/1 33/2/1
f 36/2/1 30/2/1 34/2/1
f 36/2/1 34/2/1 35/2/1
f 37/2/2 38/2/2 39/2/2
f 39/2/2 38/2/2 40/2/2
f 37/2/2 39/2/2 41/2/2
f 39/1/2 40/1/2 42/1/2
f 41/2/2 39/2/2 42/2/2
f 42/1/2 40/1/2 43/1/2
f 44/2/2 45/2/2 46/2/2
f 46/2/2 45/2/2 47/2/2
f 46/1/2 47/1/2 48/1/2
f 48/1/2 47/1/2 49/1/2
f 48/2/2 49/2/2 51/2/2
f 50/2/2 51/2/2 52/2/2
f 51/2/2 49/2/2 53/2/2
f 52/2/2 51/2/2 53/2/2
f 54/2/2 55/2/2 56/2/2
f 56/2/2 55/2/2 57/2/2
f 54/2/2 56/2/2 58/2/2
f 56/1/2 57/1/2 58/1/2
f 58/1/2 57/1/2 59/1/2
f 58/2/2 59/2/2 60/2/2
f 60/2/2 59/2/2 61/2/2
f 58/2/2 60/2/2 62/2/2
f 60/1/2 61/1/2 62/1/2
f 62/1/2 61/1/2 63/1/2
f 54/2/2 58/2/2 64/2/2
f 58/2/2 62/2/2 64/2/2
f 62/2/2 63/2/2 64/2/2
f 64/2/2 63/2/2 65/2/2
f 66/2/2 67/2/2 68/2/2
f 68/2/2 67/2/2 69/2/2
f 68/1/2 69/1/2 70/1/2
f 69/2/2 67/2/2 71/2/2
f 70/1/2 69/1/2 71/1/2
f 71/2/2 67/2/2 72/2/2
f 73/2/2 74/2/2 75/2/2
f 75/2/2 74/2/2 76/2/2
f 79/2/2 80/2/2 81/2/2
f 81/2/2 80/2/2 82/2/2
f 77/2/2 78/2/2 83/2/2
f 83/2/2 78/2/2 84/2/2
f 77/2/2 83/2/2 85/2/2
f 83/1/2 84/1/2 85/1/2
f 85/1/2 84/1/2 86/1/2
f 77/2/2 85/2/2 87/2/2
f 85/2/2 86/2/2 87/2/2
f 87/2/2 86/2/2 88/2/2
f 91/2/3 90/2/3 89/2/3
f 92/2/3 90/2/3 91/2/3
f 97/2/3 94/2/3 93/2/3
f 97/1/3 95/1/3 94/1/3
f 98/2/3 96/2/3 95/2/3
f 98/1/3 95/1/3 97/1/3
f 99/2/3 97/2/3 93/2/3
f 99/2/3 98/2/3 97/2/3
f 100/2/3 96/2/3 98/2/3
f 100/2/3 98/2/3 99/2/3
f 103/2/3 102/2/3 101/2/3
f 104/2/3 102/2/3 103/2/3
f 105/2/3 103/2/3 101/2/3
f 105/1/3 104/1/3 103/1/3
f 106/2/3 102/2/3 104/2/3
f 106/1/3 104/1/3 105/1/3
f 107/2/3 105/2/3 101/2/3
f 107/2/3 106/2/3 105/2/3
f 108/2/3 102/2/3 106/2/3
f 108/2/3 106/2/3 107/2/3
f 111/2/3 110/2/3 109/2/3
f 112/2/3 110/2/3 111/2/3
f 113/1/3 112/1/3 111/1/3
f 114/1/3 112/1/3 113/1/3
f 115/2/3 114/2/3 113/2/3
f 116/2/3 114/2/3 115/2/3
f 119/2/3 118/2/3 117/2/3
f 120/2/3 118/2/3 119/2/3
f 123/2/3 122/2/3 121/2/3
f 124/2/3 122/2/3 123/2/3
f 125/2/3 123/2/3 121/2/3
f 126/1/3 124/1/3 123/1/3
f 126/2/3 123/2/3 125/2/3
f 127/1/3 124/1/3 126/1/3
f 132/2/3 129/2/3 128/2/3
f 132/1/3 130/1/3 129/1/3
f 133/2/3 131/2/3 130/2/3
f 133/1/3 130/1/3 132/1/3
f 134/2/3 132/2/3 128/2/3
f 134/2/3 133/2/3 132/2/3
f 135/2/3 131/2/3 133/2/3
f 135/2/3 133/2/3 134/2/3
f 136/2/4 137/2/4 138/2/4
f 138/2/4 137/2/4 139/2/4
f 136/2/4 138/2/4 140/2/4
f 138/1/4 139/1/4 141/1/4
f 140/2/4 138/2/4 141/2/4
f 141/1/4 139/1/4 142/1/4
f 143/2/4 144/2/4 145/2/4
f 145/2/4 144/2/4 146/2/4
f 143/2/4 145/2/4 147/2/4
f 145/1/4 146/1/4 148/1/4
f 147/2/4 145/2/4 148/2/4
f 146/2/4 144/2/4 149/2/4
f 148/1/4 146/1/4 149/1/4
f 149/2/4 144/2/4 150/2/4
f 151/2/4 152/2/4 153/2/4
f 153/2/4 152/2/4 154/2/4
f 155/2/4 156/2/4 157/2/4
f 155/2/4 157/2/4 161/2/4
f 157/2/4 158/2/4 161/2/4
f 161/2/4 158/2/4 162/2/4
f 155/2/4 161/2/4 163/2/4
f 161/1/4 162/1/4 164/1/4
f 163/2/4 161/2/4 164/2/4
f 162/2/4 158/2/4 165/2/4
f 164/1/4 162/1/4 165/1/4
f 158/1/4 159/1/4 166/1/4
f 165/2/4 158/2/4 166/2/4
f 159/2/4 160/2/4 167/2/4
f 166/1/4 159/1/4 167/1/4
f 167/2/4 160/2/4 168/2/4
f 169/2/4 170/2/4 171/2/4
f 171/2/4 170/2/4 172/2/4
f 169/2/4 171/2/4 173/2/4
f 171/1/4 172/1/4 174/1/4
f 173/2/4 171/2/4 174/2/4
f 172/2/4 170/2/4 175/2/4
f 174/1/4 172/1/4 175/1/4
f 175/2/4 170/2/4 176/2/4
f 177/2/4 178/2/4 179/2/4
f 179/2/4 178/2/4 180/2/4
f 181/2/4 182/2/4 183/2/4
f 183/2/4 182/2/4 184/2/4
f 189/2/5 186/2/5 185/2/5
f 190/2/5 186/2/5 189/2/5
f 191/2/5 188/2/5 187/2/5
f 192/2/5 188/2/5 191/2/5
f 197/2/5 196/2/5 195/2/5
f 198/2/5 196/2/5 197/2/5
f 199/2/5 194/2/5 193/2/5
f 200/2/5 194/2/5 199/2/5
f 203/2/5 202/2/5 201/2/5
f 204/2/5 202/2/5 203/2/5
f 207/2/5 206/2/5 205/2/5
f 208/2/5 206/2/5 207/2/5
f 211/2/5 210/2/5 209/2/5
f 212/2/5 210/2/5 211/2/5
f 213/2/6 214/2/6 215/2/6
f 215/2/6 214/2/6 216/2/6
f 217/2/6 218/2/6 219/2/6
f 219/2/6 218/2/6 220/2/6
f 217/2/6 219/2/6 221/2/6
f 219/1/6 220/1/6 222/1/6
f 221/2/6 219/2/6 222/2/6
f 222/1/6 220/1/6 223/1/6
f 224/2/6 225/2/6 227/2/6
f 225/1/6 226/1/6 227/1/6
f 227/1/6 226/1/6 228/1/6
f 224/2/6 227/2/6 229/2/6
f 227/2/6 228/2/6 229/2/6
f 229/2/6 228/2/6 230/2/6
f 231/2/6 232/2/6 233/2/6
f 233/2/6 232/2/6 234/2/6
f 235/2/6 236/2/6 237/2/6
f 237/2/6 236/2/6 238/2/6
f 239/2/6 240/2/6 241/2/6
f 241/2/6 240/2/6 242/2/6
f 239/2/6 241/2/6 243/2/6
f 241/1/6 242/1/6 244/1/6
f 243/2/6 241/2/6 244/2/6
f 242/2/6 240/2/6 245/2/6
f 244/1/6 242/1/6 245/1/6
f 245/2/6 240/2/6 246/2/6
f 246/2/6 240/2/6 247/2/6
f 247/2/6 240/2/6 248/2/6
f 249/2/6 250/2/6 253/2/6
f 250/1/6 251/1/6 253/1/6
f 251/2/6 252/2/6 254/2/6
f 253/1/6 251/1/6 254/1/6
f 249/2/6 253/2/6 255/2/6
f 253/2/6 254/2/6 255/2/6
f 254/2/6 252/2/6 256/2/6
f 255/2/6 254/2/6 256/2/6
